<svg width="1440" height="948" viewBox="0 0 1440 948" fill="none" xmlns="http://www.w3.org/2000/svg">
<path opacity="0.2" d="M-183.682 1H-231V48.3M-183.682 1V48.3M-183.682 1H-136.364M-183.682 48.3H-231M-183.682 48.3V95.6M-183.682 48.3H-136.364M-231 48.3V95.6M-183.682 95.6H-231M-183.682 95.6V142.9M-183.682 95.6H-136.364M-231 95.6V142.9M-183.682 142.9H-231M-183.682 142.9V190.2M-183.682 142.9H-136.364M-231 142.9V190.2M-183.682 190.2H-231M-183.682 190.2V237.5M-183.682 190.2H-136.364M-231 190.2V237.5M-183.682 237.5H-231M-183.682 237.5V284.8M-183.682 237.5H-136.364M-231 237.5V284.8M-183.682 284.8H-231M-183.682 284.8V332.1M-183.682 284.8H-136.364M-231 284.8V332.1M-183.682 332.1H-231M-183.682 332.1V379.4M-183.682 332.1H-136.364M-231 332.1V379.4M-183.682 379.4H-231M-183.682 379.4V426.7M-183.682 379.4H-136.364M-231 379.4V426.7M-183.682 426.7H-231M-183.682 426.7V474M-183.682 426.7H-136.364M-231 426.7V474M-183.682 474H-231M-183.682 474V521.3M-183.682 474H-136.364M-231 474V521.3M-183.682 521.3H-231M-183.682 521.3V568.6M-183.682 521.3H-136.364M-231 521.3V568.6M-183.682 568.6H-231M-183.682 568.6V615.9M-183.682 568.6H-136.364M-231 568.6V615.9M-183.682 615.9H-231M-183.682 615.9V663.2M-183.682 615.9H-136.364M-231 615.9V663.2M-183.682 663.2H-231M-183.682 663.2V710.5M-183.682 663.2H-136.364M-231 663.2V710.5M-183.682 710.5H-231M-183.682 710.5V757.8M-183.682 710.5H-136.364M-231 710.5V757.8M-183.682 757.8H-231M-183.682 757.8V805.1M-183.682 757.8H-136.364M-231 757.8V805.1M-183.682 805.1H-231M-183.682 805.1V852.4M-183.682 805.1H-136.364M-231 805.1V852.4M-183.682 852.4H-231M-183.682 852.4V899.7M-183.682 852.4H-136.364M-231 852.4V899.7M-183.682 899.7H-231M-183.682 899.7V947M-183.682 899.7H-136.364M-231 899.7V947H-183.682M-183.682 947H-136.364M-136.364 1V48.3M-136.364 1H-89.0454M-136.364 48.3V95.6M-136.364 48.3H-89.0454M-136.364 95.6V142.9M-136.364 95.6H-89.0454M-136.364 142.9V190.2M-136.364 142.9H-89.0454M-136.364 190.2V237.5M-136.364 190.2H-89.0454M-136.364 237.5V284.8M-136.364 237.5H-89.0454M-136.364 284.8V332.1M-136.364 284.8H-89.0454M-136.364 332.1V379.4M-136.364 332.1H-89.0454M-136.364 379.4V426.7M-136.364 379.4H-89.0454M-136.364 426.7V474M-136.364 426.7H-89.0454M-136.364 474V521.3M-136.364 474H-89.0454M-136.364 521.3V568.6M-136.364 521.3H-89.0454M-136.364 568.6V615.9M-136.364 568.6H-89.0454M-136.364 615.9V663.2M-136.364 615.9H-89.0454M-136.364 663.2V710.5M-136.364 663.2H-89.0454M-136.364 710.5V757.8M-136.364 710.5H-89.0454M-136.364 757.8V805.1M-136.364 757.8H-89.0454M-136.364 805.1V852.4M-136.364 805.1H-89.0454M-136.364 852.4V899.7M-136.364 852.4H-89.0454M-136.364 899.7V947M-136.364 899.7H-89.0454M-136.364 947H-89.0454M-89.0454 1V48.3M-89.0454 1H-41.7273M-89.0454 48.3V95.6M-89.0454 48.3H-41.7273M-89.0454 95.6V142.9M-89.0454 95.6H-41.7273M-89.0454 142.9V190.2M-89.0454 142.9H-41.7273M-89.0454 190.2V237.5M-89.0454 190.2H-41.7273M-89.0454 237.5V284.8M-89.0454 237.5H-41.7273M-89.0454 284.8V332.1M-89.0454 284.8H-41.7273M-89.0454 332.1V379.4M-89.0454 332.1H-41.7273M-89.0454 379.4V426.7M-89.0454 379.4H-41.7273M-89.0454 426.7V474M-89.0454 426.7H-41.7273M-89.0454 474V521.3M-89.0454 474H-41.7273M-89.0454 521.3V568.6M-89.0454 521.3H-41.7273M-89.0454 568.6V615.9M-89.0454 568.6H-41.7273M-89.0454 615.9V663.2M-89.0454 615.9H-41.7273M-89.0454 663.2V710.5M-89.0454 663.2H-41.7273M-89.0454 710.5V757.8M-89.0454 710.5H-41.7273M-89.0454 757.8V805.1M-89.0454 757.8H-41.7273M-89.0454 805.1V852.4M-89.0454 805.1H-41.7273M-89.0454 852.4V899.7M-89.0454 852.4H-41.7273M-89.0454 899.7V947M-89.0454 899.7H-41.7273M-89.0454 947H-41.7273M-41.7273 1V48.3M-41.7273 1H5.59091M-41.7273 48.3V95.6M-41.7273 48.3H5.59091M-41.7273 95.6V142.9M-41.7273 95.6H5.59091M-41.7273 142.9V190.2M-41.7273 142.9H5.59091M-41.7273 190.2V237.5M-41.7273 190.2H5.59091M-41.7273 237.5V284.8M-41.7273 237.5H5.59091M-41.7273 284.8V332.1M-41.7273 284.8H5.59091M-41.7273 332.1V379.4M-41.7273 332.1H5.59091M-41.7273 379.4V426.7M-41.7273 379.4H5.59091M-41.7273 426.7V474M-41.7273 426.7H5.59091M-41.7273 474V521.3M-41.7273 474H5.59091M-41.7273 521.3V568.6M-41.7273 521.3H5.59091M-41.7273 568.6V615.9M-41.7273 568.6H5.59091M-41.7273 615.9V663.2M-41.7273 615.9H5.59091M-41.7273 663.2V710.5M-41.7273 663.2H5.59091M-41.7273 710.5V757.8M-41.7273 710.5H5.59091M-41.7273 757.8V805.1M-41.7273 757.8H5.59091M-41.7273 805.1V852.4M-41.7273 805.1H5.59091M-41.7273 852.4V899.7M-41.7273 852.4H5.59091M-41.7273 899.7V947M-41.7273 899.7H5.59091M-41.7273 947H5.59091M5.59091 1V48.3M5.59091 1H52.9091M5.59091 48.3V95.6M5.59091 48.3H52.9091M5.59091 95.6V142.9M5.59091 95.6H52.9091M5.59091 142.9V190.2M5.59091 142.9H52.9091M5.59091 190.2V237.5M5.59091 190.2H52.9091M5.59091 237.5V284.8M5.59091 237.5H52.9091M5.59091 284.8V332.1M5.59091 284.8H52.9091M5.59091 332.1V379.4M5.59091 332.1H52.9091M5.59091 379.4V426.7M5.59091 379.4H52.9091M5.59091 426.7V474M5.59091 426.7H52.9091M5.59091 474V521.3M5.59091 474H52.9091M5.59091 521.3V568.6M5.59091 521.3H52.9091M5.59091 568.6V615.9M5.59091 568.6H52.9091M5.59091 615.9V663.2M5.59091 615.9H52.9091M5.59091 663.2V710.5M5.59091 663.2H52.9091M5.59091 710.5V757.8M5.59091 710.5H52.9091M5.59091 757.8V805.1M5.59091 757.8H52.9091M5.59091 805.1V852.4M5.59091 805.1H52.9091M5.59091 852.4V899.7M5.59091 852.4H52.9091M5.59091 899.7V947M5.59091 899.7H52.9091M5.59091 947H52.9091M52.9091 1V48.3M52.9091 1H100.227M52.9091 48.3V95.6M52.9091 48.3H100.227M52.9091 95.6V142.9M52.9091 95.6H100.227M52.9091 142.9V190.2M52.9091 142.9H100.227M52.9091 190.2V237.5M52.9091 190.2H100.227M52.9091 237.5V284.8M52.9091 237.5H100.227M52.9091 284.8V332.1M52.9091 284.8H100.227M52.9091 332.1V379.4M52.9091 332.1H100.227M52.9091 379.4V426.7M52.9091 379.4H100.227M52.9091 426.7V474M52.9091 426.7H100.227M52.9091 474V521.3M52.9091 474H100.227M52.9091 521.3V568.6M52.9091 521.3H100.227M52.9091 568.6V615.9M52.9091 568.6H100.227M52.9091 615.9V663.2M52.9091 615.9H100.227M52.9091 663.2V710.5M52.9091 663.2H100.227M52.9091 710.5V757.8M52.9091 710.5H100.227M52.9091 757.8V805.1M52.9091 757.8H100.227M52.9091 805.1V852.4M52.9091 805.1H100.227M52.9091 852.4V899.7M52.9091 852.4H100.227M52.9091 899.7V947M52.9091 899.7H100.227M52.9091 947H100.227M100.227 1V48.3M100.227 1H147.545M100.227 48.3V95.6M100.227 48.3H147.545M100.227 95.6V142.9M100.227 95.6H147.545M100.227 142.9V190.2M100.227 142.9H147.545M100.227 190.2V237.5M100.227 190.2H147.545M100.227 237.5V284.8M100.227 237.5H147.545M100.227 284.8V332.1M100.227 284.8H147.545M100.227 332.1V379.4M100.227 332.1H147.545M100.227 379.4V426.7M100.227 379.4H147.545M100.227 426.7V474M100.227 426.7H147.545M100.227 474V521.3M100.227 474H147.545M100.227 521.3V568.6M100.227 521.3H147.545M100.227 568.6V615.9M100.227 568.6H147.545M100.227 615.9V663.2M100.227 615.9H147.545M100.227 663.2V710.5M100.227 663.2H147.545M100.227 710.5V757.8M100.227 710.5H147.545M100.227 757.8V805.1M100.227 757.8H147.545M100.227 805.1V852.4M100.227 805.1H147.545M100.227 852.4V899.7M100.227 852.4H147.545M100.227 899.7V947M100.227 899.7H147.545M100.227 947H147.545M147.545 1V48.3M147.545 1H194.864M147.545 48.3V95.6M147.545 48.3H194.864M147.545 95.6V142.9M147.545 95.6H194.864M147.545 142.9V190.2M147.545 142.9H194.864M147.545 190.2V237.5M147.545 190.2H194.864M147.545 237.5V284.8M147.545 237.5H194.864M147.545 284.8V332.1M147.545 284.8H194.864M147.545 332.1V379.4M147.545 332.1H194.864M147.545 379.4V426.7M147.545 379.4H194.864M147.545 426.7V474M147.545 426.7H194.864M147.545 474V521.3M147.545 474H194.864M147.545 521.3V568.6M147.545 521.3H194.864M147.545 568.6V615.9M147.545 568.6H194.864M147.545 615.9V663.2M147.545 615.9H194.864M147.545 663.2V710.5M147.545 663.2H194.864M147.545 710.5V757.8M147.545 710.5H194.864M147.545 757.8V805.1M147.545 757.8H194.864M147.545 805.1V852.4M147.545 805.1H194.864M147.545 852.4V899.7M147.545 852.4H194.864M147.545 899.7V947M147.545 899.7H194.864M147.545 947H194.864M194.864 1V48.3M194.864 1H242.182M194.864 48.3V95.6M194.864 48.3H242.182M194.864 95.6V142.9M194.864 95.6H242.182M194.864 142.9V190.2M194.864 142.9H242.182M194.864 190.2V237.5M194.864 190.2H242.182M194.864 237.5V284.8M194.864 237.5H242.182M194.864 284.8V332.1M194.864 284.8H242.182M194.864 332.1V379.4M194.864 332.1H242.182M194.864 379.4V426.7M194.864 379.4H242.182M194.864 426.7V474M194.864 426.7H242.182M194.864 474V521.3M194.864 474H242.182M194.864 521.3V568.6M194.864 521.3H242.182M194.864 568.6V615.9M194.864 568.6H242.182M194.864 615.9V663.2M194.864 615.9H242.182M194.864 663.2V710.5M194.864 663.2H242.182M194.864 710.5V757.8M194.864 710.5H242.182M194.864 757.8V805.1M194.864 757.8H242.182M194.864 805.1V852.4M194.864 805.1H242.182M194.864 852.4V899.7M194.864 852.4H242.182M194.864 899.7V947M194.864 899.7H242.182M194.864 947H242.182M242.182 1V48.3M242.182 1H289.5M242.182 48.3V95.6M242.182 48.3H289.5M242.182 95.6V142.9M242.182 95.6H289.5M242.182 142.9V190.2M242.182 142.9H289.5M242.182 190.2V237.5M242.182 190.2H289.5M242.182 237.5V284.8M242.182 237.5H289.5M242.182 284.8V332.1M242.182 284.8H289.5M242.182 332.1V379.4M242.182 332.1H289.5M242.182 379.4V426.7M242.182 379.4H289.5M242.182 426.7V474M242.182 426.7H289.5M242.182 474V521.3M242.182 474H289.5M242.182 521.3V568.6M242.182 521.3H289.5M242.182 568.6V615.9M242.182 568.6H289.5M242.182 615.9V663.2M242.182 615.9H289.5M242.182 663.2V710.5M242.182 663.2H289.5M242.182 710.5V757.8M242.182 710.5H289.5M242.182 757.8V805.1M242.182 757.8H289.5M242.182 805.1V852.4M242.182 805.1H289.5M242.182 852.4V899.7M242.182 852.4H289.5M242.182 899.7V947M242.182 899.7H289.5M242.182 947H289.5M289.5 1V48.3M289.5 1H336.818M289.5 48.3V95.6M289.5 48.3H336.818M289.5 95.6V142.9M289.5 95.6H336.818M289.5 142.9V190.2M289.5 142.9H336.818M289.5 190.2V237.5M289.5 190.2H336.818M289.5 237.5V284.8M289.5 237.5H336.818M289.5 284.8V332.1M289.5 284.8H336.818M289.5 332.1V379.4M289.5 332.1H336.818M289.5 379.4V426.7M289.5 379.4H336.818M289.5 426.7V474M289.5 426.7H336.818M289.5 474V521.3M289.5 474H336.818M289.5 521.3V568.6M289.5 521.3H336.818M289.5 568.6V615.9M289.5 568.6H336.818M289.5 615.9V663.2M289.5 615.9H336.818M289.5 663.2V710.5M289.5 663.2H336.818M289.5 710.5V757.8M289.5 710.5H336.818M289.5 757.8V805.1M289.5 757.8H336.818M289.5 805.1V852.4M289.5 805.1H336.818M289.5 852.4V899.7M289.5 852.4H336.818M289.5 899.7V947M289.5 899.7H336.818M289.5 947H336.818M336.818 1V48.3M336.818 1H384.136M336.818 48.3V95.6M336.818 48.3H384.136M336.818 95.6V142.9M336.818 95.6H384.136M336.818 142.9V190.2M336.818 142.9H384.136M336.818 190.2V237.5M336.818 190.2H384.136M336.818 237.5V284.8M336.818 237.5H384.136M336.818 284.8V332.1M336.818 284.8H384.136M336.818 332.1V379.4M336.818 332.1H384.136M336.818 379.4V426.7M336.818 379.4H384.136M336.818 426.7V474M336.818 426.7H384.136M336.818 474V521.3M336.818 474H384.136M336.818 521.3V568.6M336.818 521.3H384.136M336.818 568.6V615.9M336.818 568.6H384.136M336.818 615.9V663.2M336.818 615.9H384.136M336.818 663.2V710.5M336.818 663.2H384.136M336.818 710.5V757.8M336.818 710.5H384.136M336.818 757.8V805.1M336.818 757.8H384.136M336.818 805.1V852.4M336.818 805.1H384.136M336.818 852.4V899.7M336.818 852.4H384.136M336.818 899.7V947M336.818 899.7H384.136M336.818 947H384.136M384.136 1V48.3M384.136 1H431.455M384.136 48.3V95.6M384.136 48.3H431.455M384.136 95.6V142.9M384.136 95.6H431.455M384.136 142.9V190.2M384.136 142.9H431.455M384.136 190.2V237.5M384.136 190.2H431.455M384.136 237.5V284.8M384.136 237.5H431.455M384.136 284.8V332.1M384.136 284.8H431.455M384.136 332.1V379.4M384.136 332.1H431.455M384.136 379.4V426.7M384.136 379.4H431.455M384.136 426.7V474M384.136 426.7H431.455M384.136 474V521.3M384.136 474H431.455M384.136 521.3V568.6M384.136 521.3H431.455M384.136 568.6V615.9M384.136 568.6H431.455M384.136 615.9V663.2M384.136 615.9H431.455M384.136 663.2V710.5M384.136 663.2H431.455M384.136 710.5V757.8M384.136 710.5H431.455M384.136 757.8V805.1M384.136 757.8H431.455M384.136 805.1V852.4M384.136 805.1H431.455M384.136 852.4V899.7M384.136 852.4H431.455M384.136 899.7V947M384.136 899.7H431.455M384.136 947H431.455M431.455 1V48.3M431.455 1H478.773M431.455 48.3V95.6M431.455 48.3H478.773M431.455 95.6V142.9M431.455 95.6H478.773M431.455 142.9V190.2M431.455 142.9H478.773M431.455 190.2V237.5M431.455 190.2H478.773M431.455 237.5V284.8M431.455 237.5H478.773M431.455 284.8V332.1M431.455 284.8H478.773M431.455 332.1V379.4M431.455 332.1H478.773M431.455 379.4V426.7M431.455 379.4H478.773M431.455 426.7V474M431.455 426.7H478.773M431.455 474V521.3M431.455 474H478.773M431.455 521.3V568.6M431.455 521.3H478.773M431.455 568.6V615.9M431.455 568.6H478.773M431.455 615.9V663.2M431.455 615.9H478.773M431.455 663.2V710.5M431.455 663.2H478.773M431.455 710.5V757.8M431.455 710.5H478.773M431.455 757.8V805.1M431.455 757.8H478.773M431.455 805.1V852.4M431.455 805.1H478.773M431.455 852.4V899.7M431.455 852.4H478.773M431.455 899.7V947M431.455 899.7H478.773M431.455 947H478.773M478.773 1V48.3M478.773 1H526.091M478.773 48.3V95.6M478.773 48.3H526.091M478.773 95.6V142.9M478.773 95.6H526.091M478.773 142.9V190.2M478.773 142.9H526.091M478.773 190.2V237.5M478.773 190.2H526.091M478.773 237.5V284.8M478.773 237.5H526.091M478.773 284.8V332.1M478.773 284.8H526.091M478.773 332.1V379.4M478.773 332.1H526.091M478.773 379.4V426.7M478.773 379.4H526.091M478.773 426.7V474M478.773 426.7H526.091M478.773 474V521.3M478.773 474H526.091M478.773 521.3V568.6M478.773 521.3H526.091M478.773 568.6V615.9M478.773 568.6H526.091M478.773 615.9V663.2M478.773 615.9H526.091M478.773 663.2V710.5M478.773 663.2H526.091M478.773 710.5V757.8M478.773 710.5H526.091M478.773 757.8V805.1M478.773 757.8H526.091M478.773 805.1V852.4M478.773 805.1H526.091M478.773 852.4V899.7M478.773 852.4H526.091M478.773 899.7V947M478.773 899.7H526.091M478.773 947H526.091M526.091 1V48.3M526.091 1H573.409M526.091 48.3V95.6M526.091 48.3H573.409M526.091 95.6V142.9M526.091 95.6H573.409M526.091 142.9V190.2M526.091 142.9H573.409M526.091 190.2V237.5M526.091 190.2H573.409M526.091 237.5V284.8M526.091 237.5H573.409M526.091 284.8V332.1M526.091 284.8H573.409M526.091 332.1V379.4M526.091 332.1H573.409M526.091 379.4V426.7M526.091 379.4H573.409M526.091 426.7V474M526.091 426.7H573.409M526.091 474V521.3M526.091 474H573.409M526.091 521.3V568.6M526.091 521.3H573.409M526.091 568.6V615.9M526.091 568.6H573.409M526.091 615.9V663.2M526.091 615.9H573.409M526.091 663.2V710.5M526.091 663.2H573.409M526.091 710.5V757.8M526.091 710.5H573.409M526.091 757.8V805.1M526.091 757.8H573.409M526.091 805.1V852.4M526.091 805.1H573.409M526.091 852.4V899.7M526.091 852.4H573.409M526.091 899.7V947M526.091 899.7H573.409M526.091 947H573.409M573.409 1V48.3M573.409 1H620.727M573.409 48.3V95.6M573.409 48.3H620.727M573.409 95.6V142.9M573.409 95.6H620.727M573.409 142.9V190.2M573.409 142.9H620.727M573.409 190.2V237.5M573.409 190.2H620.727M573.409 237.5V284.8M573.409 237.5H620.727M573.409 284.8V332.1M573.409 284.8H620.727M573.409 332.1V379.4M573.409 332.1H620.727M573.409 379.4V426.7M573.409 379.4H620.727M573.409 426.7V474M573.409 426.7H620.727M573.409 474V521.3M573.409 474H620.727M573.409 521.3V568.6M573.409 521.3H620.727M573.409 568.6V615.9M573.409 568.6H620.727M573.409 615.9V663.2M573.409 615.9H620.727M573.409 663.2V710.5M573.409 663.2H620.727M573.409 710.5V757.8M573.409 710.5H620.727M573.409 757.8V805.1M573.409 757.8H620.727M573.409 805.1V852.4M573.409 805.1H620.727M573.409 852.4V899.7M573.409 852.4H620.727M573.409 899.7V947M573.409 899.7H620.727M573.409 947H620.727M620.727 1V48.3M620.727 1H668.046M620.727 48.3V95.6M620.727 48.3H668.046M620.727 95.6V142.9M620.727 95.6H668.046M620.727 142.9V190.2M620.727 142.9H668.046M620.727 190.2V237.5M620.727 190.2H668.046M620.727 237.5V284.8M620.727 237.5H668.046M620.727 284.8V332.1M620.727 284.8H668.046M620.727 332.1V379.4M620.727 332.1H668.046M620.727 379.4V426.7M620.727 379.4H668.046M620.727 426.7V474M620.727 426.7H668.046M620.727 474V521.3M620.727 474H668.046M620.727 521.3V568.6M620.727 521.3H668.046M620.727 568.6V615.9M620.727 568.6H668.046M620.727 615.9V663.2M620.727 615.9H668.046M620.727 663.2V710.5M620.727 663.2H668.046M620.727 710.5V757.8M620.727 710.5H668.046M620.727 757.8V805.1M620.727 757.8H668.046M620.727 805.1V852.4M620.727 805.1H668.046M620.727 852.4V899.7M620.727 852.4H668.046M620.727 899.7V947M620.727 899.7H668.046M620.727 947H668.046M668.046 1V48.3M668.046 1H715.364M668.046 48.3V95.6M668.046 48.3H715.364M668.046 95.6V142.9M668.046 95.6H715.364M668.046 142.9V190.2M668.046 142.9H715.364M668.046 190.2V237.5M668.046 190.2H715.364M668.046 237.5V284.8M668.046 237.5H715.364M668.046 284.8V332.1M668.046 284.8H715.364M668.046 332.1V379.4M668.046 332.1H715.364M668.046 379.4V426.7M668.046 379.4H715.364M668.046 426.7V474M668.046 426.7H715.364M668.046 474V521.3M668.046 474H715.364M668.046 521.3V568.6M668.046 521.3H715.364M668.046 568.6V615.9M668.046 568.6H715.364M668.046 615.9V663.2M668.046 615.9H715.364M668.046 663.2V710.5M668.046 663.2H715.364M668.046 710.5V757.8M668.046 710.5H715.364M668.046 757.8V805.1M668.046 757.8H715.364M668.046 805.1V852.4M668.046 805.1H715.364M668.046 852.4V899.7M668.046 852.4H715.364M668.046 899.7V947M668.046 899.7H715.364M668.046 947H715.364M715.364 1V48.3M715.364 1H762.682M715.364 48.3V95.6M715.364 48.3H762.682M715.364 95.6V142.9M715.364 95.6H762.682M715.364 142.9V190.2M715.364 142.9H762.682M715.364 190.2V237.5M715.364 190.2H762.682M715.364 237.5V284.8M715.364 237.5H762.682M715.364 284.8V332.1M715.364 284.8H762.682M715.364 332.1V379.4M715.364 332.1H762.682M715.364 379.4V426.7M715.364 379.4H762.682M715.364 426.7V474M715.364 426.7H762.682M715.364 474V521.3M715.364 474H762.682M715.364 521.3V568.6M715.364 521.3H762.682M715.364 568.6V615.9M715.364 568.6H762.682M715.364 615.9V663.2M715.364 615.9H762.682M715.364 663.2V710.5M715.364 663.2H762.682M715.364 710.5V757.8M715.364 710.5H762.682M715.364 757.8V805.1M715.364 757.8H762.682M715.364 805.1V852.4M715.364 805.1H762.682M715.364 852.4V899.7M715.364 852.4H762.682M715.364 899.7V947M715.364 899.7H762.682M715.364 947H762.682M762.682 1V48.3M762.682 1H810M762.682 48.3V95.6M762.682 48.3H810M762.682 95.6V142.9M762.682 95.6H810M762.682 142.9V190.2M762.682 142.9H810M762.682 190.2V237.5M762.682 190.2H810M762.682 237.5V284.8M762.682 237.5H810M762.682 284.8V332.1M762.682 284.8H810M762.682 332.1V379.4M762.682 332.1H810M762.682 379.4V426.7M762.682 379.4H810M762.682 426.7V474M762.682 426.7H810M762.682 474V521.3M762.682 474H810M762.682 521.3V568.6M762.682 521.3H810M762.682 568.6V615.9M762.682 568.6H810M762.682 615.9V663.2M762.682 615.9H810M762.682 663.2V710.5M762.682 663.2H810M762.682 710.5V757.8M762.682 710.5H810M762.682 757.8V805.1M762.682 757.8H810M762.682 805.1V852.4M762.682 805.1H810M762.682 852.4V899.7M762.682 852.4H810M762.682 899.7V947M762.682 899.7H810M762.682 947H810M810 1V48.3M810 1H857.318M810 48.3V95.6M810 48.3H857.318M810 95.6V142.9M810 95.6H857.318M810 142.9V190.2M810 142.9H857.318M810 190.2V237.5M810 190.2H857.318M810 237.5V284.8M810 237.5H857.318M810 284.8V332.1M810 284.8H857.318M810 332.1V379.4M810 332.1H857.318M810 379.4V426.7M810 379.4H857.318M810 426.7V474M810 426.7H857.318M810 474V521.3M810 474H857.318M810 521.3V568.6M810 521.3H857.318M810 568.6V615.9M810 568.6H857.318M810 615.9V663.2M810 615.9H857.318M810 663.2V710.5M810 663.2H857.318M810 710.5V757.8M810 710.5H857.318M810 757.8V805.1M810 757.8H857.318M810 805.1V852.4M810 805.1H857.318M810 852.4V899.7M810 852.4H857.318M810 899.7V947M810 899.7H857.318M810 947H857.318M857.318 1V48.3M857.318 1H904.636M857.318 48.3V95.6M857.318 48.3H904.636M857.318 95.6V142.9M857.318 95.6H904.636M857.318 142.9V190.2M857.318 142.9H904.636M857.318 190.2V237.5M857.318 190.2H904.636M857.318 237.5V284.8M857.318 237.5H904.636M857.318 284.8V332.1M857.318 284.8H904.636M857.318 332.1V379.4M857.318 332.1H904.636M857.318 379.4V426.7M857.318 379.4H904.636M857.318 426.7V474M857.318 426.7H904.636M857.318 474V521.3M857.318 474H904.636M857.318 521.3V568.6M857.318 521.3H904.636M857.318 568.6V615.9M857.318 568.6H904.636M857.318 615.9V663.2M857.318 615.9H904.636M857.318 663.2V710.5M857.318 663.2H904.636M857.318 710.5V757.8M857.318 710.5H904.636M857.318 757.8V805.1M857.318 757.8H904.636M857.318 805.1V852.4M857.318 805.1H904.636M857.318 852.4V899.7M857.318 852.4H904.636M857.318 899.7V947M857.318 899.7H904.636M857.318 947H904.636M904.636 1V48.3M904.636 1H951.955M904.636 48.3V95.6M904.636 48.3H951.955M904.636 95.6V142.9M904.636 95.6H951.955M904.636 142.9V190.2M904.636 142.9H951.955M904.636 190.2V237.5M904.636 190.2H951.955M904.636 237.5V284.8M904.636 237.5H951.955M904.636 284.8V332.1M904.636 284.8H951.955M904.636 332.1V379.4M904.636 332.1H951.955M904.636 379.4V426.7M904.636 379.4H951.955M904.636 426.7V474M904.636 426.7H951.955M904.636 474V521.3M904.636 474H951.955M904.636 521.3V568.6M904.636 521.3H951.955M904.636 568.6V615.9M904.636 568.6H951.955M904.636 615.9V663.2M904.636 615.9H951.955M904.636 663.2V710.5M904.636 663.2H951.955M904.636 710.5V757.8M904.636 710.5H951.955M904.636 757.8V805.1M904.636 757.8H951.955M904.636 805.1V852.4M904.636 805.1H951.955M904.636 852.4V899.7M904.636 852.4H951.955M904.636 899.7V947M904.636 899.7H951.955M904.636 947H951.955M951.955 1V48.3M951.955 1H999.273M951.955 48.3V95.6M951.955 48.3H999.273M951.955 95.6V142.9M951.955 95.6H999.273M951.955 142.9V190.2M951.955 142.9H999.273M951.955 190.2V237.5M951.955 190.2H999.273M951.955 237.5V284.8M951.955 237.5H999.273M951.955 284.8V332.1M951.955 284.8H999.273M951.955 332.1V379.4M951.955 332.1H999.273M951.955 379.4V426.7M951.955 379.4H999.273M951.955 426.7V474M951.955 426.7H999.273M951.955 474V521.3M951.955 474H999.273M951.955 521.3V568.6M951.955 521.3H999.273M951.955 568.6V615.9M951.955 568.6H999.273M951.955 615.9V663.2M951.955 615.9H999.273M951.955 663.2V710.5M951.955 663.2H999.273M951.955 710.5V757.8M951.955 710.5H999.273M951.955 757.8V805.1M951.955 757.8H999.273M951.955 805.1V852.4M951.955 805.1H999.273M951.955 852.4V899.7M951.955 852.4H999.273M951.955 899.7V947M951.955 899.7H999.273M951.955 947H999.273M999.273 1V48.3M999.273 1H1046.59M999.273 48.3V95.6M999.273 48.3H1046.59M999.273 95.6V142.9M999.273 95.6H1046.59M999.273 142.9V190.2M999.273 142.9H1046.59M999.273 190.2V237.5M999.273 190.2H1046.59M999.273 237.5V284.8M999.273 237.5H1046.59M999.273 284.8V332.1M999.273 284.8H1046.59M999.273 332.1V379.4M999.273 332.1H1046.59M999.273 379.4V426.7M999.273 379.4H1046.59M999.273 426.7V474M999.273 426.7H1046.59M999.273 474V521.3M999.273 474H1046.59M999.273 521.3V568.6M999.273 521.3H1046.59M999.273 568.6V615.9M999.273 568.6H1046.59M999.273 615.9V663.2M999.273 615.9H1046.59M999.273 663.2V710.5M999.273 663.2H1046.59M999.273 710.5V757.8M999.273 710.5H1046.59M999.273 757.8V805.1M999.273 757.8H1046.59M999.273 805.1V852.4M999.273 805.1H1046.59M999.273 852.4V899.7M999.273 852.4H1046.59M999.273 899.7V947M999.273 899.7H1046.59M999.273 947H1046.59M1046.59 1V48.3M1046.59 1H1093.91M1046.59 48.3V95.6M1046.59 48.3H1093.91M1046.59 95.6V142.9M1046.59 95.6H1093.91M1046.59 142.9V190.2M1046.59 142.9H1093.91M1046.59 190.2V237.5M1046.59 190.2H1093.91M1046.59 237.5V284.8M1046.59 237.5H1093.91M1046.59 284.8V332.1M1046.59 284.8H1093.91M1046.59 332.1V379.4M1046.59 332.1H1093.91M1046.59 379.4V426.7M1046.59 379.4H1093.91M1046.59 426.7V474M1046.59 426.7H1093.91M1046.59 474V521.3M1046.59 474H1093.91M1046.59 521.3V568.6M1046.59 521.3H1093.91M1046.59 568.6V615.9M1046.59 568.6H1093.91M1046.59 615.9V663.2M1046.59 615.9H1093.91M1046.59 663.2V710.5M1046.59 663.2H1093.91M1046.59 710.5V757.8M1046.59 710.5H1093.91M1046.59 757.8V805.1M1046.59 757.8H1093.91M1046.59 805.1V852.4M1046.59 805.1H1093.91M1046.59 852.4V899.7M1046.59 852.4H1093.91M1046.59 899.7V947M1046.59 899.7H1093.91M1046.59 947H1093.91M1093.91 1V48.3M1093.91 1H1141.23M1093.91 48.3V95.6M1093.91 48.3H1141.23M1093.91 95.6V142.9M1093.91 95.6H1141.23M1093.91 142.9V190.2M1093.91 142.9H1141.23M1093.91 190.2V237.5M1093.91 190.2H1141.23M1093.91 237.5V284.8M1093.91 237.5H1141.23M1093.91 284.8V332.1M1093.91 284.8H1141.23M1093.91 332.1V379.4M1093.91 332.1H1141.23M1093.91 379.4V426.7M1093.91 379.4H1141.23M1093.91 426.7V474M1093.91 426.7H1141.23M1093.91 474V521.3M1093.91 474H1141.23M1093.91 521.3V568.6M1093.91 521.3H1141.23M1093.91 568.6V615.9M1093.91 568.6H1141.23M1093.91 615.9V663.2M1093.91 615.9H1141.23M1093.91 663.2V710.5M1093.91 663.2H1141.23M1093.91 710.5V757.8M1093.91 710.5H1141.23M1093.91 757.8V805.1M1093.91 757.8H1141.23M1093.91 805.1V852.4M1093.91 805.1H1141.23M1093.91 852.4V899.7M1093.91 852.4H1141.23M1093.91 899.7V947M1093.91 899.7H1141.23M1093.91 947H1141.23M1141.23 1V48.3M1141.23 1H1188.55M1141.23 48.3V95.6M1141.23 48.3H1188.55M1141.23 95.6V142.9M1141.23 95.6H1188.55M1141.23 142.9V190.2M1141.23 142.9H1188.55M1141.23 190.2V237.5M1141.23 190.2H1188.55M1141.23 237.5V284.8M1141.23 237.5H1188.55M1141.23 284.8V332.1M1141.23 284.8H1188.55M1141.23 332.1V379.4M1141.23 332.1H1188.55M1141.23 379.4V426.7M1141.23 379.4H1188.55M1141.23 426.7V474M1141.23 426.7H1188.55M1141.23 474V521.3M1141.23 474H1188.55M1141.23 521.3V568.6M1141.23 521.3H1188.55M1141.23 568.6V615.9M1141.23 568.6H1188.55M1141.23 615.9V663.2M1141.23 615.9H1188.55M1141.23 663.2V710.5M1141.23 663.2H1188.55M1141.23 710.5V757.8M1141.23 710.5H1188.55M1141.23 757.8V805.1M1141.23 757.8H1188.55M1141.23 805.1V852.4M1141.23 805.1H1188.55M1141.23 852.4V899.7M1141.23 852.4H1188.55M1141.23 899.7V947M1141.23 899.7H1188.55M1141.23 947H1188.55M1188.55 1V48.3M1188.55 1H1235.86M1188.55 48.3V95.6M1188.55 48.3H1235.86M1188.55 95.6V142.9M1188.55 95.6H1235.86M1188.55 142.9V190.2M1188.55 142.9H1235.86M1188.55 190.2V237.5M1188.55 190.2H1235.86M1188.55 237.5V284.8M1188.55 237.5H1235.86M1188.55 284.8V332.1M1188.55 284.8H1235.86M1188.55 332.1V379.4M1188.55 332.1H1235.86M1188.55 379.4V426.7M1188.55 379.4H1235.86M1188.55 426.7V474M1188.55 426.7H1235.86M1188.55 474V521.3M1188.55 474H1235.86M1188.55 521.3V568.6M1188.55 521.3H1235.86M1188.55 568.6V615.9M1188.55 568.6H1235.86M1188.55 615.9V663.2M1188.55 615.9H1235.86M1188.55 663.2V710.5M1188.55 663.2H1235.86M1188.55 710.5V757.8M1188.55 710.5H1235.86M1188.55 757.8V805.1M1188.55 757.8H1235.86M1188.55 805.1V852.4M1188.55 805.1H1235.86M1188.55 852.4V899.7M1188.55 852.4H1235.86M1188.55 899.7V947M1188.55 899.7H1235.86M1188.55 947H1235.86M1235.86 1V48.3M1235.86 1H1283.18M1235.86 48.3V95.6M1235.86 48.3H1283.18M1235.86 95.6V142.9M1235.86 95.6H1283.18M1235.86 142.9V190.2M1235.86 142.9H1283.18M1235.86 190.2V237.5M1235.86 190.2H1283.18M1235.86 237.5V284.8M1235.86 237.5H1283.18M1235.86 284.8V332.1M1235.86 284.8H1283.18M1235.86 332.1V379.4M1235.86 332.1H1283.18M1235.86 379.4V426.7M1235.86 379.4H1283.18M1235.86 426.7V474M1235.86 426.7H1283.18M1235.86 474V521.3M1235.86 474H1283.18M1235.86 521.3V568.6M1235.86 521.3H1283.18M1235.86 568.6V615.9M1235.86 568.6H1283.18M1235.86 615.9V663.2M1235.86 615.9H1283.18M1235.86 663.2V710.5M1235.86 663.2H1283.18M1235.86 710.5V757.8M1235.86 710.5H1283.18M1235.86 757.8V805.1M1235.86 757.8H1283.18M1235.86 805.1V852.4M1235.86 805.1H1283.18M1235.86 852.4V899.7M1235.86 852.4H1283.18M1235.86 899.7V947M1235.86 899.7H1283.18M1235.86 947H1283.18M1283.18 1V48.3M1283.18 1H1330.5M1283.18 48.3V95.6M1283.18 48.3H1330.5M1283.18 95.6V142.9M1283.18 95.6H1330.5M1283.18 142.9V190.2M1283.18 142.9H1330.5M1283.18 190.2V237.5M1283.18 190.2H1330.5M1283.18 237.5V284.8M1283.18 237.5H1330.5M1283.18 284.8V332.1M1283.18 284.8H1330.5M1283.18 332.1V379.4M1283.18 332.1H1330.5M1283.18 379.4V426.7M1283.18 379.4H1330.5M1283.18 426.7V474M1283.18 426.7H1330.5M1283.18 474V521.3M1283.18 474H1330.5M1283.18 521.3V568.6M1283.18 521.3H1330.5M1283.18 568.6V615.9M1283.18 568.6H1330.5M1283.18 615.9V663.2M1283.18 615.9H1330.5M1283.18 663.2V710.5M1283.18 663.2H1330.5M1283.18 710.5V757.8M1283.18 710.5H1330.5M1283.18 757.8V805.1M1283.18 757.8H1330.5M1283.18 805.1V852.4M1283.18 805.1H1330.5M1283.18 852.4V899.7M1283.18 852.4H1330.5M1283.18 899.7V947M1283.18 899.7H1330.5M1283.18 947H1330.5M1330.5 1V48.3M1330.5 1H1377.82M1330.5 48.3V95.6M1330.5 48.3H1377.82M1330.5 95.6V142.9M1330.5 95.6H1377.82M1330.5 142.9V190.2M1330.5 142.9H1377.82M1330.5 190.2V237.5M1330.5 190.2H1377.82M1330.5 237.5V284.8M1330.5 237.5H1377.82M1330.5 284.8V332.1M1330.5 284.8H1377.82M1330.5 332.1V379.4M1330.5 332.1H1377.82M1330.5 379.4V426.7M1330.5 379.4H1377.82M1330.5 426.7V474M1330.5 426.7H1377.82M1330.5 474V521.3M1330.5 474H1377.82M1330.5 521.3V568.6M1330.5 521.3H1377.82M1330.5 568.6V615.9M1330.5 568.6H1377.82M1330.5 615.9V663.2M1330.5 615.9H1377.82M1330.5 663.2V710.5M1330.5 663.2H1377.82M1330.5 710.5V757.8M1330.5 710.5H1377.82M1330.5 757.8V805.1M1330.5 757.8H1377.82M1330.5 805.1V852.4M1330.5 805.1H1377.82M1330.5 852.4V899.7M1330.5 852.4H1377.82M1330.5 899.7V947M1330.5 899.7H1377.82M1330.5 947H1377.82M1377.82 1V48.3M1377.82 1H1425.14M1377.82 48.3V95.6M1377.82 48.3H1425.14M1377.82 95.6V142.9M1377.82 95.6H1425.14M1377.82 142.9V190.2M1377.82 142.9H1425.14M1377.82 190.2V237.5M1377.82 190.2H1425.14M1377.82 237.5V284.8M1377.82 237.5H1425.14M1377.82 284.8V332.1M1377.82 284.8H1425.14M1377.82 332.1V379.4M1377.82 332.1H1425.14M1377.82 379.4V426.7M1377.82 379.4H1425.14M1377.82 426.7V474M1377.82 426.7H1425.14M1377.82 474V521.3M1377.82 474H1425.14M1377.82 521.3V568.6M1377.82 521.3H1425.14M1377.82 568.6V615.9M1377.82 568.6H1425.14M1377.82 615.9V663.2M1377.82 615.9H1425.14M1377.82 663.2V710.5M1377.82 663.2H1425.14M1377.82 710.5V757.8M1377.82 710.5H1425.14M1377.82 757.8V805.1M1377.82 757.8H1425.14M1377.82 805.1V852.4M1377.82 805.1H1425.14M1377.82 852.4V899.7M1377.82 852.4H1425.14M1377.82 899.7V947M1377.82 899.7H1425.14M1377.82 947H1425.14M1425.14 1V48.3M1425.14 1H1472.45M1425.14 48.3V95.6M1425.14 48.3H1472.45M1425.14 95.6V142.9M1425.14 95.6H1472.45M1425.14 142.9V190.2M1425.14 142.9H1472.45M1425.14 190.2V237.5M1425.14 190.2H1472.45M1425.14 237.5V284.8M1425.14 237.5H1472.45M1425.14 284.8V332.1M1425.14 284.8H1472.45M1425.14 332.1V379.4M1425.14 332.1H1472.45M1425.14 379.4V426.7M1425.14 379.4H1472.45M1425.14 426.7V474M1425.14 426.7H1472.45M1425.14 474V521.3M1425.14 474H1472.45M1425.14 521.3V568.6M1425.14 521.3H1472.45M1425.14 568.6V615.9M1425.14 568.6H1472.45M1425.14 615.9V663.2M1425.14 615.9H1472.45M1425.14 663.2V710.5M1425.14 663.2H1472.45M1425.14 710.5V757.8M1425.14 710.5H1472.45M1425.14 757.8V805.1M1425.14 757.8H1472.45M1425.14 805.1V852.4M1425.14 805.1H1472.45M1425.14 852.4V899.7M1425.14 852.4H1472.45M1425.14 899.7V947M1425.14 899.7H1472.45M1425.14 947H1472.45M1472.45 1V48.3M1472.45 1H1519.77M1472.45 48.3V95.6M1472.45 48.3H1519.77M1472.45 95.6V142.9M1472.45 95.6H1519.77M1472.45 142.9V190.2M1472.45 142.9H1519.77M1472.45 190.2V237.5M1472.45 190.2H1519.77M1472.45 237.5V284.8M1472.45 237.5H1519.77M1472.45 284.8V332.1M1472.45 284.8H1519.77M1472.45 332.1V379.4M1472.45 332.1H1519.77M1472.45 379.4V426.7M1472.45 379.4H1519.77M1472.45 426.7V474M1472.45 426.7H1519.77M1472.45 474V521.3M1472.45 474H1519.77M1472.45 521.3V568.6M1472.45 521.3H1519.77M1472.45 568.6V615.9M1472.45 568.6H1519.77M1472.45 615.9V663.2M1472.45 615.9H1519.77M1472.45 663.2V710.5M1472.45 663.2H1519.77M1472.45 710.5V757.8M1472.45 710.5H1519.77M1472.45 757.8V805.1M1472.45 757.8H1519.77M1472.45 805.1V852.4M1472.45 805.1H1519.77M1472.45 852.4V899.7M1472.45 852.4H1519.77M1472.45 899.7V947M1472.45 899.7H1519.77M1472.45 947H1519.77M1519.77 1V48.3M1519.77 1H1567.09M1519.77 48.3V95.6M1519.77 48.3H1567.09M1519.77 95.6V142.9M1519.77 95.6H1567.09M1519.77 142.9V190.2M1519.77 142.9H1567.09M1519.77 190.2V237.5M1519.77 190.2H1567.09M1519.77 237.5V284.8M1519.77 237.5H1567.09M1519.77 284.8V332.1M1519.77 284.8H1567.09M1519.77 332.1V379.4M1519.77 332.1H1567.09M1519.77 379.4V426.7M1519.77 379.4H1567.09M1519.77 426.7V474M1519.77 426.7H1567.09M1519.77 474V521.3M1519.77 474H1567.09M1519.77 521.3V568.6M1519.77 521.3H1567.09M1519.77 568.6V615.9M1519.77 568.6H1567.09M1519.77 615.9V663.2M1519.77 615.9H1567.09M1519.77 663.2V710.5M1519.77 663.2H1567.09M1519.77 710.5V757.8M1519.77 710.5H1567.09M1519.77 757.8V805.1M1519.77 757.8H1567.09M1519.77 805.1V852.4M1519.77 805.1H1567.09M1519.77 852.4V899.7M1519.77 852.4H1567.09M1519.77 899.7V947M1519.77 899.7H1567.09M1519.77 947H1567.09M1567.09 1V48.3M1567.09 1H1614.41M1567.09 48.3V95.6M1567.09 48.3H1614.41M1567.09 95.6V142.9M1567.09 95.6H1614.41M1567.09 142.9V190.2M1567.09 142.9H1614.41M1567.09 190.2V237.5M1567.09 190.2H1614.41M1567.09 237.5V284.8M1567.09 237.5H1614.41M1567.09 284.8V332.1M1567.09 284.8H1614.41M1567.09 332.1V379.4M1567.09 332.1H1614.41M1567.09 379.4V426.7M1567.09 379.4H1614.41M1567.09 426.7V474M1567.09 426.7H1614.41M1567.09 474V521.3M1567.09 474H1614.41M1567.09 521.3V568.6M1567.09 521.3H1614.41M1567.09 568.6V615.9M1567.09 568.6H1614.41M1567.09 615.9V663.2M1567.09 615.9H1614.41M1567.09 663.2V710.5M1567.09 663.2H1614.41M1567.09 710.5V757.8M1567.09 710.5H1614.41M1567.09 757.8V805.1M1567.09 757.8H1614.41M1567.09 805.1V852.4M1567.09 805.1H1614.41M1567.09 852.4V899.7M1567.09 852.4H1614.41M1567.09 899.7V947M1567.09 899.7H1614.41M1567.09 947H1614.41M1614.41 1V48.3M1614.41 1H1661.73M1614.41 48.3V95.6M1614.41 48.3H1661.73M1614.41 95.6V142.9M1614.41 95.6H1661.73M1614.41 142.9V190.2M1614.41 142.9H1661.73M1614.41 190.2V237.5M1614.41 190.2H1661.73M1614.41 237.5V284.8M1614.41 237.5H1661.73M1614.41 284.8V332.1M1614.41 284.8H1661.73M1614.41 332.1V379.4M1614.41 332.1H1661.73M1614.41 379.4V426.7M1614.41 379.4H1661.73M1614.41 426.7V474M1614.41 426.7H1661.73M1614.41 474V521.3M1614.41 474H1661.73M1614.41 521.3V568.6M1614.41 521.3H1661.73M1614.41 568.6V615.9M1614.41 568.6H1661.73M1614.41 615.9V663.2M1614.41 615.9H1661.73M1614.41 663.2V710.5M1614.41 663.2H1661.73M1614.41 710.5V757.8M1614.41 710.5H1661.73M1614.41 757.8V805.1M1614.41 757.8H1661.73M1614.41 805.1V852.4M1614.41 805.1H1661.73M1614.41 852.4V899.7M1614.41 852.4H1661.73M1614.41 899.7V947M1614.41 899.7H1661.73M1614.41 947H1661.73M1661.73 1V48.3M1661.73 1H1709.05M1661.73 48.3V95.6M1661.73 48.3H1709.05M1661.73 95.6V142.9M1661.73 95.6H1709.05M1661.73 142.9V190.2M1661.73 142.9H1709.05M1661.73 190.2V237.5M1661.73 190.2H1709.05M1661.73 237.5V284.8M1661.73 237.5H1709.05M1661.73 284.8V332.1M1661.73 284.8H1709.05M1661.73 332.1V379.4M1661.73 332.1H1709.05M1661.73 379.4V426.7M1661.73 379.4H1709.05M1661.73 426.7V474M1661.73 426.7H1709.05M1661.73 474V521.3M1661.73 474H1709.05M1661.73 521.3V568.6M1661.73 521.3H1709.05M1661.73 568.6V615.9M1661.73 568.6H1709.05M1661.73 615.9V663.2M1661.73 615.9H1709.05M1661.73 663.2V710.5M1661.73 663.2H1709.05M1661.73 710.5V757.8M1661.73 710.5H1709.05M1661.73 757.8V805.1M1661.73 757.8H1709.05M1661.73 805.1V852.4M1661.73 805.1H1709.05M1661.73 852.4V899.7M1661.73 852.4H1709.05M1661.73 899.7V947M1661.73 899.7H1709.05M1661.73 947H1709.05M1709.05 1V48.3M1709.05 1H1756.36M1709.05 48.3V95.6M1709.05 48.3H1756.36M1709.05 95.6V142.9M1709.05 95.6H1756.36M1709.05 142.9V190.2M1709.05 142.9H1756.36M1709.05 190.2V237.5M1709.05 190.2H1756.36M1709.05 237.5V284.8M1709.05 237.5H1756.36M1709.05 284.8V332.1M1709.05 284.8H1756.36M1709.05 332.1V379.4M1709.05 332.1H1756.36M1709.05 379.4V426.7M1709.05 379.4H1756.36M1709.05 426.7V474M1709.05 426.7H1756.36M1709.05 474V521.3M1709.05 474H1756.36M1709.05 521.3V568.6M1709.05 521.3H1756.36M1709.05 568.6V615.9M1709.05 568.6H1756.36M1709.05 615.9V663.2M1709.05 615.9H1756.36M1709.05 663.2V710.5M1709.05 663.2H1756.36M1709.05 710.5V757.8M1709.05 710.5H1756.36M1709.05 757.8V805.1M1709.05 757.8H1756.36M1709.05 805.1V852.4M1709.05 805.1H1756.36M1709.05 852.4V899.7M1709.05 852.4H1756.36M1709.05 899.7V947M1709.05 899.7H1756.36M1709.05 947H1756.36M1756.36 1V48.3M1756.36 1H1803.68M1756.36 48.3V95.6M1756.36 48.3H1803.68M1756.36 95.6V142.9M1756.36 95.6H1803.68M1756.36 142.9V190.2M1756.36 142.9H1803.68M1756.36 190.2V237.5M1756.36 190.2H1803.68M1756.36 237.5V284.8M1756.36 237.5H1803.68M1756.36 284.8V332.1M1756.36 284.8H1803.68M1756.36 332.1V379.4M1756.36 332.1H1803.68M1756.36 379.4V426.7M1756.36 379.4H1803.68M1756.36 426.7V474M1756.36 426.7H1803.68M1756.36 474V521.3M1756.36 474H1803.68M1756.36 521.3V568.6M1756.36 521.3H1803.68M1756.36 568.6V615.9M1756.36 568.6H1803.68M1756.36 615.9V663.2M1756.36 615.9H1803.68M1756.36 663.2V710.5M1756.36 663.2H1803.68M1756.36 710.5V757.8M1756.36 710.5H1803.68M1756.36 757.8V805.1M1756.36 757.8H1803.68M1756.36 805.1V852.4M1756.36 805.1H1803.68M1756.36 852.4V899.7M1756.36 852.4H1803.68M1756.36 899.7V947M1756.36 899.7H1803.68M1756.36 947H1803.68M1803.68 1V48.3M1803.68 1H1851V48.3M1803.68 48.3V95.6M1803.68 48.3H1851M1803.68 95.6V142.9M1803.68 95.6H1851M1803.68 142.9V190.2M1803.68 142.9H1851M1803.68 190.2V237.5M1803.68 190.2H1851M1803.68 237.5V284.8M1803.68 237.5H1851M1803.68 284.8V332.1M1803.68 284.8H1851M1803.68 332.1V379.4M1803.68 332.1H1851M1803.68 379.4V426.7M1803.68 379.4H1851M1803.68 426.7V474M1803.68 426.7H1851M1803.68 474V521.3M1803.68 474H1851M1803.68 521.3V568.6M1803.68 521.3H1851M1803.68 568.6V615.9M1803.68 568.6H1851M1803.68 615.9V663.2M1803.68 615.9H1851M1803.68 663.2V710.5M1803.68 663.2H1851M1803.68 710.5V757.8M1803.68 710.5H1851M1803.68 757.8V805.1M1803.68 757.8H1851M1803.68 805.1V852.4M1803.68 805.1H1851M1803.68 852.4V899.7M1803.68 852.4H1851M1803.68 899.7V947M1803.68 899.7H1851M1803.68 947H1851V899.7M1851 48.3V95.6M1851 95.6V142.9M1851 142.9V190.2M1851 190.2V237.5M1851 237.5V284.8M1851 284.8V332.1M1851 332.1V379.4M1851 379.4V426.7M1851 426.7V474M1851 474V521.3M1851 521.3V568.6M1851 568.6V615.9M1851 615.9V663.2M1851 663.2V710.5M1851 710.5V757.8M1851 757.8V805.1M1851 805.1V852.4M1851 852.4V899.7" stroke="#D6D6D6" stroke-width="0.804612"/>
</svg>
