<svg width="1440" height="783" viewBox="0 0 1440 783" fill="none" xmlns="http://www.w3.org/2000/svg">
<path fill-rule="evenodd" clip-rule="evenodd" d="M131.563 0.547256H-24.4519V156.333H115.4L131.563 140.193V0.547256ZM148.157 156.333L132.202 140.401V0.547256H288.217V156.333H148.157ZM132.202 172.665L147.92 156.971H288.217V312.757H132.202V172.665ZM115.637 156.971L131.563 172.873V312.757H-24.4519V156.971H115.637ZM-25 0V156.424V156.88V312.848V313.304V469.272V469.728V625.696V626.152V782.12V782.576V783H131.654H132.111H288.308H288.765H444.963H445.419H601.617H602.074H758.271H758.728H914.926H915.382H1071.58H1072.04H1228.23H1228.69H1384.89H1385.35H1542L1542 782.576V626.152V625.696V469.272V313.304V156.88V156.424V0H1385.35H1384.89H1228.69H1228.23H1072.04H1071.58H915.382H914.926H758.728H758.271H602.074H601.617H445.419H444.963H288.765H288.308H132.111H131.654H-25ZM288.856 0.547256H444.871V156.333H288.856V0.547256ZM601.526 0.547256H445.511V156.333H601.526V0.547256ZM602.165 0.547256H758.18V156.333H602.165V0.547256ZM914.834 0.547256H758.819V156.333H914.834V0.547256ZM915.474 0.547256H1071.49V156.333H915.474V0.547256ZM1228.14 0.547256H1072.13V156.333H1228.14V0.547256ZM1228.78 0.547256H1384.8V156.333H1228.78V0.547256ZM1541.45 0.547256H1385.44V156.333H1541.45V0.547256ZM288.856 156.971H444.871V312.757H288.856V156.971ZM601.526 156.971H445.511V312.757H585.833L601.526 297.087V156.971ZM617.607 312.757L602.165 297.338V156.971H758.18V312.757H617.607ZM602.165 329.559L618.3 313.448L618.246 313.395H758.18V469.18H602.165V329.559ZM585.194 313.395L585.14 313.448L601.526 329.81V469.18H445.511V313.395H585.194ZM914.834 156.971H758.819V312.757H914.834V156.971ZM915.474 156.971H1071.49V312.757H915.474V156.971ZM1228.14 156.971H1072.13V312.757H1228.14V156.971ZM1228.78 156.971H1384.8V269.537L1384.53 269.801L1341.51 312.757H1228.78V156.971ZM1340.87 313.395H1228.78V453.833L1229.31 453.31L1245.2 469.18H1384.8V357.36L1384.53 357.095L1341.24 313.871L1340.82 313.448L1340.87 313.395ZM1384.8 356.515L1341.67 313.448L1341.72 313.395H1368.43L1368.38 313.448L1384.8 329.846V356.515ZM1385.44 357.038V469.18H1541.45V313.395H1429.04L1429.09 313.448L1428.67 313.871L1385.44 357.038ZM1428.19 313.395L1428.24 313.448L1385.44 356.192V329.524L1401.54 313.448L1401.48 313.395H1428.19ZM1428.4 312.757H1541.45V156.971H1385.44V269.859L1428.4 312.757ZM1385.44 270.705L1427.55 312.757H1400.84L1385.44 297.374V270.705ZM1384.8 270.382L1342.36 312.757H1369.07L1384.8 297.052V270.382ZM1228.78 485.897L1229.31 486.42L1245.89 469.865L1245.84 469.819H1384.8V625.605H1228.78V485.897ZM1212.77 469.819L1212.73 469.865L1228.14 485.259V625.605H1072.13V469.819H1212.77ZM1228.14 454.472L1213.41 469.18H1072.13V313.395H1228.14V454.472ZM-24.4519 313.395H131.563V469.18H-24.4519V313.395ZM288.217 313.395H132.202V469.18H288.217V313.395ZM288.856 313.395H444.871V469.18H288.856V313.395ZM914.835 313.395H758.82V469.18H914.835V313.395ZM915.474 313.395H1071.49V469.18H915.474V313.395ZM-24.4519 469.819H131.563V625.605H-24.4519V469.819ZM288.217 469.819H132.202V625.605H245.11L244.907 625.402L245.33 624.979L288.217 582.155V469.819ZM288.217 583L245.753 625.402L245.956 625.605H272.665L272.462 625.402L288.217 609.67V583ZM288.856 609.031V582.362L289.041 582.178L332.329 625.402L332.126 625.605H305.418L305.621 625.402L289.041 608.847L288.856 609.031ZM288.856 641.773L289.041 641.957L304.779 626.243H331.487L289.041 668.626L288.856 668.442V641.773ZM273.304 626.243L288.217 641.134V667.804L246.596 626.243H273.304ZM245.749 626.243H132.202V782.029H288.217V668.649L245.749 626.243ZM288.856 669.287V782.029H444.871V626.243H332.333L289.465 669.049L289.041 669.472L288.856 669.287ZM332.973 625.605H444.871V469.819H288.856V581.517L289.041 581.332L289.465 581.755L332.753 624.979L333.176 625.402L332.973 625.605ZM601.526 469.819H445.511V625.605H601.526V469.819ZM602.165 469.819H758.18V625.605H602.165V469.819ZM914.834 469.819H758.819V625.605H914.834V469.819ZM915.474 469.819H1071.49V625.605H915.474V469.819ZM1541.45 469.819H1385.44V625.605H1541.45V469.819ZM-24.4519 626.243H131.563V782.029H-24.4519V626.243ZM601.526 626.243H445.511V782.029H601.526V626.243ZM602.165 626.243H758.18V782.029H602.165V626.243ZM914.834 626.243H758.819V782.029H914.834V626.243ZM915.474 626.243H1071.49V782.029H915.474V626.243ZM1228.14 626.243H1072.13V782.029H1228.14V626.243ZM1228.78 626.243H1384.8V782.029H1228.78V626.243ZM1541.45 626.243H1385.44V782.029H1541.45V626.243ZM-24.4519 782.667H131.563V782.453H-24.4519V782.667ZM288.217 782.667H132.202V782.453H288.217V782.667ZM288.856 782.667H444.871V782.453H288.856V782.667ZM601.526 782.667H445.511V782.453H601.526V782.667ZM602.165 782.667H758.18V782.453H602.165V782.667ZM914.834 782.667H758.819V782.453H914.834V782.667ZM915.474 782.667H1071.49V782.453H915.474V782.667ZM1228.14 782.667H1072.13V782.453H1228.14V782.667ZM1228.78 782.667H1384.8V782.453H1228.78V782.667ZM1541.45 782.667H1385.44V782.453H1541.45V782.667Z" fill="url(#paint0_radial_658_3596)"/>
<defs>
<radialGradient id="paint0_radial_658_3596" cx="0" cy="0" r="1" gradientUnits="userSpaceOnUse" gradientTransform="translate(758.5 321.395) rotate(90) scale(461.605 923.799)">
<stop stop-color="#171717"/>
<stop offset="1" stop-color="#EDEDED" stop-opacity="0"/>
</radialGradient>
</defs>
</svg>
