<svg width="1440" height="793" viewBox="0 0 1440 793" fill="none" xmlns="http://www.w3.org/2000/svg">
<path fill-rule="evenodd" clip-rule="evenodd" d="M1296.13 0.462166H1439.5V132.025H1310.98L1296.13 118.395V0.462166ZM1280.88 132.025L1295.54 118.571V0.462166H1152.17V132.025H1280.88ZM1295.54 145.818L1281.09 132.565H1152.17V264.128H1295.54V145.818ZM1310.76 132.565L1296.13 145.994V264.128H1439.5V132.565H1310.76ZM1440 0V132.103V132.488V264.205V264.59V396.307V396.692V528.41V528.795V660.512V660.897V793H1296.04H1295.62H1152.08H1151.66H1008.13H1007.71H864.168H863.748H720.21H719.79H576.252H575.833H432.294H431.874H288.336H287.916H144.378H143.959H0.000488281L0 660.897V528.795V528.41V396.307V264.59V132.488V132.103V0H143.959H144.378H287.916H288.336H431.874H432.294H575.833H576.252H719.79H720.21H863.748H864.168H1007.71H1008.13H1151.66H1152.08H1295.62H1296.04H1440ZM1151.58 0.462166H1008.21V132.025H1151.58V0.462166ZM864.252 0.462166H1007.62V132.025H864.252V0.462166ZM863.664 0.462166H720.294V132.025H863.664V0.462166ZM576.336 0.462166H719.707V132.025H576.336V0.462166ZM575.748 0.462166H432.378V132.025H575.748V0.462166ZM288.42 0.462166H431.79V132.025H288.42V0.462166ZM287.833 0.462166H144.462V132.025H287.833V0.462166ZM0.503662 0.462166H143.874V132.025H0.503662V0.462166ZM1151.58 132.565H1008.21V264.128H1151.58V132.565ZM864.252 132.565H1007.62V264.128H878.673L864.252 250.895V132.565ZM849.474 264.128L863.664 251.106V132.565H720.294V264.128H849.474ZM863.664 278.318L848.838 264.712L848.887 264.667H720.294V396.23H863.664V278.318ZM879.26 264.667L879.309 264.712L864.252 278.529V396.23H1007.62V264.667H879.26ZM576.336 132.565H719.707V264.128H576.336V132.565ZM575.748 132.565H432.378V264.128H575.748V132.565ZM288.42 132.565H431.79V264.128H288.42V132.565ZM287.833 132.565H144.462V227.628L144.705 227.851L184.238 264.128H287.833V132.565ZM184.825 264.667H287.832V383.269L287.351 382.827L272.745 396.23H144.462V301.796L144.705 301.573L184.485 265.069L184.874 264.712L184.825 264.667ZM144.462 301.082L184.096 264.712L184.047 264.667H159.503L159.552 264.712L144.462 278.56V301.082ZM143.875 301.524V396.23H0.50415V264.667H103.808L103.759 264.712L104.148 265.069L143.875 301.524ZM104.586 264.667L104.537 264.712L143.875 300.81V278.288L129.08 264.712L129.13 264.667H104.586ZM104.395 264.128H0.503662V132.565H143.874V227.9L104.395 264.128ZM143.874 228.614L105.173 264.128H129.717L143.874 251.137V228.614ZM144.462 228.342L183.46 264.128H158.916L144.462 250.865V228.342ZM287.833 410.347L287.351 410.79L272.115 396.808L272.157 396.769H144.462V528.333H287.833V410.347ZM302.544 396.769L302.587 396.808L288.42 409.809V528.333H431.79V396.769H302.544ZM288.42 383.808L301.957 396.23H431.79V264.667H288.42V383.808ZM1439.5 264.667H1296.13V396.23H1439.5V264.667ZM1152.17 264.667H1295.54V396.23H1152.17V264.667ZM1151.58 264.667H1008.21V396.23H1151.58V264.667ZM576.336 264.667H719.706V396.23H576.336V264.667ZM575.748 264.667H432.378V396.23H575.748V264.667ZM1439.5 396.769H1296.13V528.333H1439.5V396.769ZM1152.17 396.769H1295.54V528.333H1191.78L1191.97 528.162L1191.58 527.805L1152.17 491.639V396.769ZM1152.17 492.353L1191.19 528.162L1191 528.333H1166.46L1166.65 528.162L1152.17 514.875V492.353ZM1151.58 514.336V491.814L1151.41 491.658L1111.63 528.162L1111.82 528.333H1136.36L1136.17 528.162L1151.41 514.18L1151.58 514.336ZM1151.58 541.987L1151.41 542.143L1136.95 528.872H1112.41L1151.41 564.665L1151.58 564.509V541.987ZM1165.87 528.872L1152.17 541.448V563.97L1190.42 528.872H1165.87ZM1191.19 528.872H1295.54V660.435H1152.17V564.684L1191.19 528.872ZM1151.58 565.223V660.435H1008.21V528.872H1111.63L1151.02 565.022L1151.41 565.379L1151.58 565.223ZM1111.04 528.333H1008.21V396.769H1151.58V491.1L1151.41 490.944L1151.02 491.301L1111.24 527.805L1110.85 528.162L1111.04 528.333ZM864.252 396.769H1007.62V528.333H864.252V396.769ZM863.664 396.769H720.294V528.333H863.664V396.769ZM576.336 396.769H719.707V528.333H576.336V396.769ZM575.748 396.769H432.378V528.333H575.748V396.769ZM0.503662 396.769H143.874V528.333H0.503662V396.769ZM1439.5 528.872H1296.13V660.435H1439.5V528.872ZM864.252 528.872H1007.62V660.435H864.252V528.872ZM863.664 528.872H720.294V660.435H863.664V528.872ZM576.336 528.872H719.707V660.435H576.336V528.872ZM575.748 528.872H432.378V660.435H575.748V528.872ZM288.42 528.872H431.79V660.435H288.42V528.872ZM287.833 528.872H144.462V660.435H287.833V528.872ZM0.503662 528.872H143.874V660.435H0.503662V528.872ZM1439.5 660.975H1296.13V792.538H1439.5V660.975ZM1152.17 660.975H1295.54V792.538H1152.17V660.975ZM1151.58 660.975H1008.21V792.538H1151.58V660.975ZM864.252 660.975H1007.62V792.538H864.252V660.975ZM863.664 660.975H720.294V792.538H863.664V660.975ZM576.336 660.975H719.707V792.538H576.336V660.975ZM575.748 660.975H432.378V792.538H575.748V660.975ZM288.42 660.975H431.79V792.538H288.42V660.975ZM287.833 660.975H144.462V792.538H287.833V660.975ZM0.50415 660.975H143.875V792.538H0.50415V660.975Z" fill="url(#paint0_radial_658_3200)"/>
<defs>
<radialGradient id="paint0_radial_658_3200" cx="0" cy="0" r="1" gradientUnits="userSpaceOnUse" gradientTransform="translate(720 325.5) rotate(90) scale(467.5 848.928)">
<stop stop-color="#171717"/>
<stop offset="1" stop-color="#EDEDED" stop-opacity="0"/>
</radialGradient>
</defs>
</svg>
