<svg width="236" height="68" viewBox="0 0 236 68" fill="none" xmlns="http://www.w3.org/2000/svg">
<path d="M82.3362 19.5361L93.6509 40.2743L105.006 19.5361C105.23 19.1287 105.78 18.8027 106.227 18.8027H109.402C109.707 18.8027 109.992 19.0268 109.992 19.3935V47.5061H106.309C105.983 47.5061 105.718 47.2413 105.718 46.9154V25.7087L96.2353 43.7578C96.0522 44.0837 95.6859 44.3078 95.3196 44.3078H92.0025C91.6362 44.3078 91.2902 44.0837 91.1071 43.7578L81.6036 25.7087V46.9154C81.6036 47.2413 81.339 47.5061 81.0134 47.5061H77.3301V19.3935C77.3301 19.0268 77.5946 18.8027 77.9202 18.8027H81.0948C81.5425 18.8027 82.092 19.1287 82.3159 19.5361H82.3362Z" fill="#6D6E70"/>
<path d="M129.142 39.6629V19.6582C129.142 19.3322 129.406 19.0674 129.732 19.0674H133.415V40.0704C133.415 42.026 135.002 43.615 136.915 43.615H151.079C151.405 43.615 151.669 43.8798 151.669 44.2058V47.5263H136.915C132.642 47.5263 129.142 43.9817 129.142 39.6629Z" fill="#6D6E70"/>
<path d="M170.981 19.4543C171.124 19.1895 171.429 18.9043 171.755 18.9043H175.703L165.914 46.9355C165.833 47.2614 165.466 47.5262 165.141 47.5262H161.559C161.234 47.5262 160.867 47.2614 160.786 46.9355L150.937 19.0265H154.884C155.21 19.0265 155.576 19.2914 155.658 19.5766L163.37 41.7611L170.961 19.4543H170.981Z" fill="#6D6E70"/>
<path d="M180.668 39.8053V18.7412H184.351C184.677 18.7412 184.941 19.006 184.941 19.332V40.1516C184.941 42.0666 186.488 43.6148 188.401 43.6148H198.657C200.57 43.6148 202.117 42.0666 202.117 40.1516V19.332C202.117 19.006 202.382 18.7412 202.707 18.7412H206.39V39.8053C206.39 44.0833 202.89 47.5261 198.678 47.5261H188.421C184.148 47.5261 180.709 44.063 180.709 39.8053H180.668Z" fill="#6D6E70"/>
<path d="M228.572 43.6148C230.485 43.6148 231.93 42.0665 231.93 40.1516V38.7664C231.93 38.3182 231.563 37.8089 231.116 37.6663L213.676 31.84C212.312 31.3919 211.173 29.8436 211.173 28.3769V25.749C211.173 21.471 214.632 18.8838 218.885 18.8838H235.043V22.2043C235.043 22.5303 234.819 22.7951 234.453 22.7951H218.885C216.972 22.7951 215.385 24.0174 215.385 25.9323V27.562C215.385 28.0713 215.751 28.5602 216.199 28.7028L233.639 34.468C235.003 34.9161 236 36.5051 236 37.9719V40.0701C236 44.3481 232.784 47.4853 228.552 47.4853H211.152V44.1648C211.152 43.7981 211.417 43.574 211.742 43.574H228.552L228.572 43.6148Z" fill="#6D6E70"/>
<path d="M117.725 26.2988V46.9351C117.725 47.2611 117.989 47.5259 118.315 47.5259H121.998V26.2988H117.725Z" fill="#6D6E70"/>
<path d="M121.979 23.916V19.3935C121.979 19.0676 121.714 18.8027 121.388 18.8027H117.705V23.916H121.979Z" fill="#6D6E70"/>
<path d="M165.751 60.5841H163.065V64.4139H161.6V53.78H165.548C166.728 53.78 167.603 54.0449 168.173 54.5541C168.742 55.0838 169.027 55.919 169.027 57.1006C169.027 57.9154 168.885 58.5673 168.58 59.0766C168.274 59.5655 167.827 59.9526 167.216 60.197L169.109 64.4343H167.46L165.751 60.6045V60.5841ZM167.481 57.1413C167.481 55.8375 166.83 55.1857 165.527 55.1857H163.044V59.1785H165.548C166.26 59.1785 166.769 58.9951 167.053 58.6284C167.338 58.2617 167.481 57.7525 167.481 57.1413ZM176.109 63.1509C176.659 63.1509 177.106 63.0694 177.473 62.9064C177.819 62.7435 178.104 62.499 178.307 62.1731C178.511 61.8471 178.633 61.4397 178.714 60.9304C178.795 60.4211 178.816 59.8304 178.816 59.1581C178.816 58.4858 178.775 57.9154 178.694 57.4061C178.612 56.8969 178.47 56.4691 178.287 56.1024C178.083 55.7561 177.819 55.4912 177.473 55.3079C177.127 55.1245 176.679 55.0431 176.13 55.0431C175.58 55.0431 175.132 55.1245 174.786 55.3079C174.441 55.4912 174.176 55.7561 173.972 56.1024C173.769 56.4487 173.627 56.8765 173.565 57.3858C173.484 57.8951 173.443 58.4858 173.443 59.1581C173.443 59.8304 173.484 60.4008 173.545 60.91C173.627 61.4193 173.749 61.8268 173.952 62.1527C174.156 62.4786 174.42 62.7231 174.786 62.9064C175.132 63.0694 175.58 63.1509 176.15 63.1509H176.109ZM176.109 64.5973C175.295 64.5973 174.603 64.475 174.054 64.251C173.504 64.0269 173.077 63.6806 172.751 63.212C172.426 62.7435 172.202 62.1934 172.08 61.5212C171.937 60.8489 171.876 60.0544 171.876 59.1785C171.876 58.3025 171.937 57.508 172.08 56.8154C172.202 56.1227 172.446 55.5523 172.751 55.0634C173.077 54.5949 173.504 54.2282 174.054 53.9837C174.603 53.7393 175.275 53.6171 176.109 53.6171C176.944 53.6171 177.615 53.7393 178.144 53.9837C178.694 54.2282 179.121 54.5949 179.447 55.0634C179.772 55.532 179.996 56.1227 180.139 56.795C180.281 57.4876 180.342 58.2617 180.342 59.1581C180.342 60.0544 180.281 60.8693 180.139 61.5416C180.016 62.2138 179.772 62.7842 179.447 63.2324C179.121 63.6806 178.694 64.0269 178.144 64.251C177.615 64.475 176.923 64.5973 176.089 64.5973H176.109ZM187.607 53.78C188.604 53.78 189.377 53.9837 189.947 54.4115C190.517 54.819 190.802 55.5116 190.802 56.4487C190.802 56.8154 190.782 57.1209 190.721 57.3858C190.66 57.6506 190.578 57.8747 190.476 58.0784C190.375 58.2821 190.232 58.4451 190.069 58.5877C189.907 58.7303 189.723 58.8525 189.5 58.9748C189.744 59.0766 189.947 59.1785 190.151 59.3007C190.354 59.4229 190.517 59.5859 190.639 59.7692C190.782 59.9526 190.883 60.197 190.965 60.4619C191.046 60.7267 191.087 61.0526 191.087 61.4397C191.087 61.9897 191.005 62.4379 190.863 62.825C190.7 63.212 190.476 63.5176 190.191 63.762C189.907 64.0065 189.54 64.1695 189.133 64.2713C188.726 64.3732 188.279 64.4343 187.77 64.4343H183.7V53.8004H187.587L187.607 53.78ZM185.165 59.7285V63.049H187.688C188.279 63.049 188.726 62.9268 189.052 62.6824C189.377 62.4379 189.54 61.9897 189.54 61.3378C189.54 60.9915 189.479 60.7063 189.357 60.5026C189.235 60.2989 189.093 60.1359 188.909 60.0137C188.726 59.9118 188.523 59.8304 188.299 59.7896C188.075 59.7489 187.872 59.7285 187.668 59.7285H185.185H185.165ZM185.165 55.1653V58.384H187.607C188.197 58.384 188.604 58.2414 188.869 57.9562C189.133 57.671 189.255 57.2432 189.255 56.6728C189.255 56.1024 189.113 55.7357 188.828 55.5116C188.543 55.2875 188.116 55.1653 187.526 55.1653H185.145H185.165ZM198.128 63.1509C198.677 63.1509 199.125 63.0694 199.491 62.9064C199.837 62.7435 200.122 62.499 200.305 62.1731C200.509 61.8471 200.651 61.4397 200.712 60.9304C200.774 60.4211 200.814 59.8304 200.814 59.1581C200.814 58.4858 200.774 57.9154 200.692 57.4061C200.611 56.8969 200.468 56.4691 200.285 56.1024C200.082 55.7561 199.817 55.4912 199.471 55.3079C199.125 55.1245 198.677 55.0431 198.128 55.0431C197.579 55.0431 197.131 55.1245 196.785 55.3079C196.439 55.4912 196.154 55.7561 195.971 56.1024C195.767 56.4487 195.645 56.8765 195.564 57.3858C195.483 57.8951 195.442 58.4858 195.442 59.1581C195.442 59.8304 195.482 60.4008 195.544 60.91C195.625 61.4193 195.747 61.8268 195.951 62.1527C196.154 62.4786 196.419 62.7231 196.785 62.9064C197.131 63.0694 197.579 63.1509 198.148 63.1509H198.128ZM198.128 64.5973C197.314 64.5973 196.642 64.475 196.093 64.251C195.544 64.0269 195.116 63.6806 194.791 63.212C194.465 62.7435 194.241 62.1934 194.099 61.5212C193.956 60.8489 193.895 60.0544 193.895 59.1785C193.895 58.3025 193.956 57.508 194.099 56.8154C194.241 56.1227 194.465 55.5523 194.791 55.0634C195.116 54.5949 195.544 54.2282 196.093 53.9837C196.642 53.7393 197.314 53.6171 198.128 53.6171C198.942 53.6171 199.634 53.7393 200.183 53.9837C200.733 54.2282 201.16 54.5949 201.486 55.0634C201.811 55.532 202.035 56.1227 202.178 56.795C202.32 57.4876 202.381 58.2617 202.381 59.1581C202.381 60.0544 202.32 60.8693 202.178 61.5416C202.035 62.2138 201.811 62.7842 201.486 63.2324C201.16 63.6806 200.733 64.0269 200.183 64.251C199.634 64.475 198.962 64.5973 198.128 64.5973ZM204.375 53.78H212.007V55.206H208.954V64.4139H207.469V55.206H204.375V53.78ZM214.489 53.78H215.975V64.4139H214.51V53.78H214.489ZM226.13 64.2102C225.784 64.2917 225.438 64.3528 225.112 64.3936C224.827 64.4547 224.502 64.4954 224.156 64.5158C223.81 64.5565 223.484 64.5769 223.199 64.5769C222.406 64.5769 221.754 64.4547 221.246 64.2306C220.737 63.9861 220.33 63.6398 220.045 63.1916C219.76 62.7231 219.557 62.1527 219.455 61.4804C219.353 60.7878 219.292 60.0137 219.292 59.1174C219.292 58.221 219.353 57.3858 219.475 56.6931C219.597 56.0005 219.801 55.4301 220.106 54.9819C220.411 54.5338 220.818 54.1875 221.307 53.9634C221.816 53.7393 222.446 53.6171 223.22 53.6171C223.566 53.6171 223.912 53.6171 224.258 53.6782C224.603 53.7189 224.929 53.7597 225.214 53.8208C225.56 53.8819 225.865 53.943 226.17 54.0041L226.13 55.3283C225.784 55.2875 225.458 55.2468 225.133 55.206C224.868 55.1653 224.563 55.1449 224.237 55.1245C223.932 55.0838 223.647 55.0838 223.403 55.0838C222.874 55.0838 222.446 55.1653 222.1 55.3079C221.775 55.4709 221.51 55.6949 221.327 56.0209C221.144 56.3468 221.002 56.7543 220.94 57.2839C220.879 57.7932 220.839 58.4247 220.839 59.1377C220.839 59.8507 220.879 60.4415 220.92 60.9508C220.981 61.4601 221.103 61.8675 221.307 62.1934C221.49 62.5194 221.754 62.7638 222.1 62.9064C222.446 63.049 222.894 63.1305 223.444 63.1305C223.667 63.1305 223.932 63.1305 224.237 63.0898C224.542 63.0694 224.848 63.0287 225.133 63.0083C225.479 62.9676 225.804 62.9268 226.15 62.8657L226.191 64.2102H226.13ZM235.287 55.2875C234.921 55.2468 234.555 55.206 234.188 55.1653C233.863 55.1449 233.537 55.1042 233.171 55.0838C232.805 55.0431 232.479 55.0431 232.174 55.0431C231.604 55.0431 231.136 55.1653 230.77 55.3894C230.424 55.6338 230.24 55.9598 230.24 56.4079C230.24 56.7543 230.383 57.0191 230.647 57.2635C230.912 57.4876 231.238 57.7117 231.645 57.8951C232.052 58.0784 232.479 58.2821 232.947 58.4655C233.415 58.6488 233.842 58.8729 234.249 59.1581C234.656 59.4229 234.982 59.7489 235.247 60.1359C235.511 60.523 235.654 60.9915 235.654 61.5619C235.654 61.949 235.613 62.336 235.491 62.6824C235.389 63.049 235.206 63.375 234.962 63.6602C234.717 63.9454 234.372 64.1695 233.924 64.3528C233.496 64.5158 232.927 64.5973 232.255 64.5973C231.97 64.5973 231.645 64.5973 231.299 64.5565C230.953 64.5362 230.607 64.4954 230.281 64.4547C229.956 64.4139 229.671 64.3732 229.406 64.3324C229.162 64.2917 228.979 64.2713 228.897 64.251L229.04 62.8657C229.04 62.8657 229.284 62.9064 229.528 62.9268C229.772 62.9472 230.057 62.9879 230.383 63.0287C230.709 63.049 231.014 63.0898 231.36 63.1102C231.706 63.1305 231.991 63.1509 232.235 63.1509C232.479 63.1509 232.723 63.1305 232.947 63.0694C233.171 63.0083 233.374 62.9268 233.537 62.8046C233.72 62.6824 233.842 62.5194 233.965 62.3157C234.066 62.112 234.127 61.8675 234.127 61.5823C234.127 61.2156 233.985 60.91 233.72 60.6452C233.456 60.3804 233.13 60.1563 232.723 59.9526C232.316 59.7489 231.889 59.5451 231.421 59.3618C230.953 59.1785 230.525 58.934 230.118 58.6895C229.711 58.4247 229.386 58.1395 229.121 57.7728C228.857 57.4265 228.714 56.9783 228.714 56.4487C228.714 56.0413 228.775 55.6746 228.897 55.3283C229.019 54.9819 229.223 54.6967 229.508 54.4319C229.793 54.1671 230.159 53.9634 230.607 53.8208C231.054 53.6782 231.624 53.5967 232.275 53.5967C232.56 53.5967 232.845 53.5967 233.171 53.6374C233.496 53.6782 233.802 53.6985 234.087 53.7393C234.372 53.78 234.636 53.8208 234.86 53.8615C235.084 53.9023 235.247 53.9226 235.348 53.943L235.247 55.2875H235.287Z" fill="#A0722D"/>
<path fill-rule="evenodd" clip-rule="evenodd" d="M32.0719 29.5796C34.8395 27.2776 38.2787 25.8312 42.0231 25.5664C41.6364 25.6886 41.2294 25.8312 40.8428 25.9738L40.4968 26.0961C35.6128 27.9906 32.0109 32.5742 31.5835 38.1356C31.034 45.449 36.1623 51.866 43.2441 53.0679C39.7032 54.9217 35.6128 55.8588 31.3189 55.594H31.2172L30.9526 55.4106C28.0426 52.4975 26.1704 48.5862 25.8651 44.2878C25.8041 43.4322 25.8041 42.5766 25.8651 41.7006C26.15 37.8097 27.717 34.3058 30.0776 31.5556C30.7084 30.8426 31.38 30.1907 32.0923 29.5796H32.0719Z" fill="#9B6E2B"/>
<path fill-rule="evenodd" clip-rule="evenodd" d="M49.6947 17.5599C48.6772 17.4988 48.0057 17.4785 48.0464 16.5414C48.0464 16.4395 48.0464 16.3173 48.0871 16.1951C49.6133 16.4803 51.2413 16.9488 52.4623 18.1711C51.9129 17.9063 51.4041 17.7637 50.9157 17.6822C50.9157 17.7433 50.9157 17.8248 50.9157 17.9063C50.9157 17.9877 50.8547 18.0692 50.814 18.1303C50.6715 18.3341 50.407 18.4359 50.1628 18.3748C49.8168 18.2933 49.6133 17.947 49.6947 17.6211V17.5599ZM58.486 27.2771C58.5674 27.1345 58.6488 26.9716 58.7302 26.829C58.7709 26.7271 58.8319 26.6253 58.8726 26.5234C58.8726 26.5234 58.9337 26.4215 58.954 26.2993C59.0761 25.953 59.1575 25.6067 59.1982 25.2604C59.2389 24.8937 59.2389 24.5474 59.1982 24.1807C59.0151 22.1639 57.6516 20.3508 55.6573 19.6378C55.6573 16.3377 52.5641 14.3005 49.8575 13.6283C50.6715 14.2801 51.4041 15.1765 51.689 15.8284C47.5783 11.8356 42.1041 9.20764 35.9584 8.7391C32.8855 8.51501 29.9144 8.84096 27.1061 9.63544C29.8127 9.71693 33.1297 10.6133 34.7984 11.5911C31.4203 10.5725 27.2282 10.491 23.5652 10.9392C19.4952 12.793 15.9746 15.6858 13.3902 19.3323C17.8672 17.9877 23.5245 17.4173 26.9026 18.5378C21.7133 18.4563 15.8729 19.9842 11.3958 22.6324C9.95099 25.5048 9.01488 28.7235 8.75033 32.1256C8.56718 34.6313 8.75033 37.0758 9.23873 39.4185C12.6982 34.1016 18.5387 30.3532 23.3617 28.8254C17.0328 31.82 11.9453 38.1351 10.3987 43.2688C13.8379 52.0692 22.0593 58.5677 32.0919 59.3419C32.1936 59.3419 32.2954 59.3419 32.3971 59.3419C16.0967 47.6486 24.3181 26.7882 41.8599 25.1585C43.203 24.4863 44.6072 24.0177 46.0113 23.7529C46.3166 23.6918 46.6218 23.651 46.9271 23.6103C49.4912 23.264 52.0553 23.4677 54.07 24.0381C54.8433 24.2622 55.5148 24.5066 56.105 24.8122C56.9393 25.24 57.5905 25.7493 57.9569 26.2993C58.1604 26.666 58.2825 27.0531 58.2825 27.4605H58.3028C58.3028 27.4605 58.3842 27.3586 58.4249 27.2771H58.486Z" fill="#9B6E2B"/>
<path d="M33.9643 3.15758C42.1857 3.15758 49.9391 6.37627 55.7389 12.2025C61.559 18.0288 64.7743 25.7699 64.7743 34C64.7743 42.2301 61.559 49.9916 55.7389 55.8179C49.9188 61.6441 42.1857 64.8424 33.9643 64.8424C25.7429 64.8424 17.9895 61.6441 12.1897 55.8179C6.36958 49.9916 3.15426 42.2505 3.15426 34.0204C3.15426 25.7903 6.36958 18.0288 12.1897 12.2229C18.0098 6.39665 25.7429 3.19832 33.9643 3.19832M33.9643 0C24.5829 0 16.0969 3.80947 9.95119 9.96165C3.80547 16.1138 0 24.6087 0 34C0 43.3913 3.80547 51.8862 9.95119 58.0383C16.0969 64.1905 24.5829 68 33.9643 68C43.3457 68 51.8317 64.1905 57.9774 58.0383C64.1231 51.8862 67.9286 43.3913 67.9286 34C67.9286 24.6087 64.1231 16.1138 57.9774 9.96165C51.8317 3.80947 43.3457 0 33.9643 0Z" fill="#9B6E2B"/>
</svg>
