<svg width="191" height="55" viewBox="0 0 191 55" fill="none" xmlns="http://www.w3.org/2000/svg">
<path d="M66.6365 15.8002L75.7937 32.5737L84.9839 15.8002C85.165 15.4707 85.6097 15.207 85.972 15.207H88.5413C88.7884 15.207 89.019 15.3883 89.019 15.6849V38.423H86.0379C85.7744 38.423 85.5603 38.2088 85.5603 37.9452V20.7927L77.8854 35.3913C77.7372 35.6549 77.4407 35.8362 77.1442 35.8362H74.4597C74.1632 35.8362 73.8832 35.6549 73.735 35.3913L66.0436 20.7927V37.9452C66.0436 38.2088 65.8295 38.423 65.566 38.423H62.585V15.6849C62.585 15.3883 62.7991 15.207 63.0626 15.207H65.6319C65.9942 15.207 66.4389 15.4707 66.6201 15.8002H66.6365Z" fill="white"/>
<path d="M104.517 32.0801V15.8997C104.517 15.6361 104.731 15.4219 104.994 15.4219H107.975V32.4096C107.975 33.9914 109.26 35.2766 110.808 35.2766H122.271C122.535 35.2766 122.749 35.4908 122.749 35.7544V38.4401H110.808C107.349 38.4401 104.517 35.5732 104.517 32.0801Z" fill="white"/>
<path d="M138.379 15.7359C138.494 15.5217 138.741 15.291 139.005 15.291H142.2L134.278 37.9633C134.212 38.2269 133.916 38.4411 133.652 38.4411H130.753C130.49 38.4411 130.194 38.2269 130.128 37.9633L122.156 15.3899H125.351C125.615 15.3899 125.911 15.6041 125.977 15.8348L132.219 33.7781L138.363 15.7359H138.379Z" fill="white"/>
<path d="M146.219 32.1954V15.1582H149.2C149.463 15.1582 149.677 15.3724 149.677 15.636V32.4755C149.677 34.0243 150.929 35.2765 152.477 35.2765H160.778C162.326 35.2765 163.578 34.0243 163.578 32.4755V15.636C163.578 15.3724 163.792 15.1582 164.056 15.1582H167.037V32.1954C167.037 35.6555 164.204 38.4401 160.794 38.4401H152.494C149.035 38.4401 146.252 35.639 146.252 32.1954H146.219Z" fill="white"/>
<path d="M184.989 35.2764C186.537 35.2764 187.706 34.0242 187.706 32.4754V31.3549C187.706 30.9924 187.41 30.5805 187.047 30.4652L172.933 25.7528C171.829 25.3903 170.907 24.138 170.907 22.9517V20.8262C170.907 17.366 173.707 15.2734 177.149 15.2734H190.226V17.9592C190.226 18.2228 190.045 18.437 189.749 18.437H177.149C175.601 18.437 174.316 19.4256 174.316 20.9745V22.2926C174.316 22.7045 174.613 23.1 174.975 23.2153L189.09 27.8783C190.193 28.2408 191 29.526 191 30.7123V32.4094C191 35.8696 188.398 38.407 184.972 38.407H170.891V35.7213C170.891 35.4247 171.105 35.2435 171.368 35.2435H184.972L184.989 35.2764Z" fill="white"/>
<path d="M95.2773 21.2715V37.9626C95.2773 38.2262 95.4915 38.4404 95.755 38.4404H98.736V21.2715H95.2773Z" fill="white"/>
<path d="M98.7194 19.3427V15.6849C98.7194 15.4212 98.5053 15.207 98.2418 15.207H95.2607V19.3427H98.7194Z" fill="white"/>
<path d="M134.146 49.0012H131.972V52.0989H130.786V43.4979H133.981C134.937 43.4979 135.645 43.7121 136.106 44.124C136.567 44.5524 136.798 45.228 136.798 46.1836C136.798 46.8427 136.682 47.37 136.435 47.7819C136.188 48.1774 135.826 48.4904 135.332 48.6881L136.863 52.1153H135.529L134.146 49.0177V49.0012ZM135.546 46.2166C135.546 45.1621 135.019 44.6348 133.965 44.6348H131.955V47.8643H133.981C134.558 47.8643 134.969 47.716 135.2 47.4194C135.431 47.1228 135.546 46.7109 135.546 46.2166ZM142.529 51.0773C142.974 51.0773 143.336 51.0114 143.633 50.8796C143.913 50.7478 144.143 50.55 144.308 50.2864C144.473 50.0228 144.571 49.6932 144.637 49.2813C144.703 48.8694 144.72 48.3916 144.72 47.8478C144.72 47.3041 144.687 46.8427 144.621 46.4308C144.555 46.0189 144.44 45.6729 144.291 45.3763C144.127 45.0962 143.913 44.882 143.633 44.7337C143.353 44.5854 142.99 44.5195 142.546 44.5195C142.101 44.5195 141.739 44.5854 141.459 44.7337C141.179 44.882 140.964 45.0962 140.8 45.3763C140.635 45.6564 140.52 46.0024 140.47 46.4143C140.404 46.8262 140.372 47.3041 140.372 47.8478C140.372 48.3916 140.404 48.8529 140.454 49.2648C140.52 49.6768 140.619 50.0063 140.783 50.2699C140.948 50.5336 141.162 50.7313 141.459 50.8796C141.739 51.0114 142.101 51.0773 142.562 51.0773H142.529ZM142.529 52.2472C141.87 52.2472 141.31 52.1483 140.866 51.967C140.421 51.7858 140.075 51.5057 139.812 51.1267C139.548 50.7478 139.367 50.3029 139.268 49.7591C139.153 49.2154 139.103 48.5728 139.103 47.8643C139.103 47.1558 139.153 46.5132 139.268 45.953C139.367 45.3927 139.565 44.9314 139.812 44.536C140.075 44.157 140.421 43.8604 140.866 43.6627C141.31 43.4649 141.854 43.3661 142.529 43.3661C143.204 43.3661 143.748 43.4649 144.176 43.6627C144.621 43.8604 144.967 44.157 145.23 44.536C145.494 44.9149 145.675 45.3927 145.79 45.9365C145.905 46.4967 145.955 47.1228 145.955 47.8478C145.955 48.5728 145.905 49.2319 145.79 49.7756C145.691 50.3194 145.494 50.7807 145.23 51.1432C144.967 51.5057 144.621 51.7858 144.176 51.967C143.748 52.1483 143.188 52.2472 142.513 52.2472H142.529ZM151.835 43.4979C152.642 43.4979 153.267 43.6627 153.729 44.0087C154.19 44.3382 154.42 44.8984 154.42 45.6564C154.42 45.953 154.404 46.2001 154.354 46.4143C154.305 46.6285 154.239 46.8098 154.157 46.9745C154.074 47.1393 153.959 47.2711 153.827 47.3865C153.696 47.5018 153.547 47.6007 153.366 47.6995C153.564 47.7819 153.729 47.8643 153.893 47.9632C154.058 48.062 154.19 48.1938 154.288 48.3421C154.404 48.4904 154.486 48.6881 154.552 48.9023C154.618 49.1165 154.651 49.3802 154.651 49.6932C154.651 50.1381 154.585 50.5006 154.47 50.8137C154.338 51.1267 154.157 51.3739 153.926 51.5716C153.696 51.7693 153.399 51.9011 153.07 51.9835C152.74 52.0659 152.378 52.1153 151.966 52.1153H148.672V43.5144H151.818L151.835 43.4979ZM149.858 48.3092V50.9949H151.9C152.378 50.9949 152.74 50.896 153.004 50.6983C153.267 50.5006 153.399 50.1381 153.399 49.6108C153.399 49.3307 153.35 49.1001 153.251 48.9353C153.152 48.7705 153.037 48.6387 152.889 48.5398C152.74 48.4575 152.576 48.3916 152.394 48.3586C152.213 48.3256 152.049 48.3092 151.884 48.3092H149.875H149.858ZM149.858 44.6183V47.2217H151.835C152.312 47.2217 152.642 47.1064 152.856 46.8757C153.07 46.645 153.169 46.299 153.169 45.8376C153.169 45.3763 153.053 45.0797 152.823 44.8984C152.592 44.7172 152.246 44.6183 151.769 44.6183H149.842H149.858ZM160.349 51.0773C160.794 51.0773 161.156 51.0114 161.453 50.8796C161.733 50.7478 161.963 50.55 162.112 50.2864C162.276 50.0228 162.392 49.6932 162.441 49.2813C162.49 48.8694 162.523 48.3916 162.523 47.8478C162.523 47.3041 162.49 46.8427 162.425 46.4308C162.359 46.0189 162.243 45.6729 162.095 45.3763C161.93 45.0962 161.716 44.882 161.436 44.7337C161.156 44.5854 160.794 44.5195 160.349 44.5195C159.905 44.5195 159.542 44.5854 159.262 44.7337C158.982 44.882 158.752 45.0962 158.604 45.3763C158.439 45.6564 158.34 46.0024 158.274 46.4143C158.208 46.8262 158.175 47.3041 158.175 47.8478C158.175 48.3916 158.208 48.8529 158.258 49.2648C158.324 49.6768 158.422 50.0063 158.587 50.2699C158.752 50.5336 158.966 50.7313 159.262 50.8796C159.542 51.0114 159.905 51.0773 160.366 51.0773H160.349ZM160.349 52.2472C159.691 52.2472 159.147 52.1483 158.702 51.967C158.258 51.7858 157.912 51.5057 157.648 51.1267C157.385 50.7478 157.204 50.3029 157.088 49.7591C156.973 49.2154 156.924 48.5728 156.924 47.8643C156.924 47.1558 156.973 46.5132 157.088 45.953C157.204 45.3927 157.385 44.9314 157.648 44.536C157.912 44.157 158.258 43.8604 158.702 43.6627C159.147 43.4649 159.691 43.3661 160.349 43.3661C161.008 43.3661 161.568 43.4649 162.013 43.6627C162.458 43.8604 162.803 44.157 163.067 44.536C163.33 44.9149 163.512 45.3927 163.627 45.9365C163.742 46.4967 163.792 47.1228 163.792 47.8478C163.792 48.5728 163.742 49.2319 163.627 49.7756C163.512 50.3194 163.33 50.7807 163.067 51.1432C162.803 51.5057 162.458 51.7858 162.013 51.967C161.568 52.1483 161.025 52.2472 160.349 52.2472ZM165.406 43.4979H171.582V44.6513H169.111V52.0989H167.909V44.6513H165.406V43.4979ZM173.591 43.4979H174.793V52.0989H173.608V43.4979H173.591ZM183.012 51.9341C182.732 52 182.452 52.0494 182.188 52.0824C181.958 52.1318 181.694 52.1648 181.414 52.1812C181.134 52.2142 180.871 52.2307 180.64 52.2307C179.998 52.2307 179.471 52.1318 179.059 51.9506C178.647 51.7528 178.318 51.4727 178.087 51.1102C177.857 50.7313 177.692 50.2699 177.61 49.7262C177.527 49.166 177.478 48.5398 177.478 47.8149C177.478 47.0899 177.527 46.4143 177.626 45.8541C177.725 45.2939 177.89 44.8325 178.137 44.47C178.384 44.1075 178.713 43.8274 179.108 43.6462C179.52 43.4649 180.031 43.3661 180.657 43.3661C180.937 43.3661 181.217 43.3661 181.497 43.4155C181.777 43.4485 182.04 43.4814 182.271 43.5309C182.551 43.5803 182.798 43.6297 183.045 43.6791L183.012 44.7501C182.732 44.7172 182.468 44.6842 182.205 44.6513C181.991 44.6183 181.744 44.6019 181.48 44.5854C181.233 44.5524 181.002 44.5524 180.805 44.5524C180.377 44.5524 180.031 44.6183 179.751 44.7337C179.487 44.8655 179.273 45.0467 179.125 45.3104C178.977 45.574 178.861 45.9035 178.812 46.3319C178.763 46.7439 178.73 47.2546 178.73 47.8313C178.73 48.408 178.763 48.8859 178.796 49.2978C178.845 49.7097 178.944 50.0392 179.108 50.3029C179.257 50.5665 179.471 50.7642 179.751 50.8796C180.031 50.9949 180.393 51.0608 180.838 51.0608C181.019 51.0608 181.233 51.0608 181.48 51.0279C181.727 51.0114 181.974 50.9784 182.205 50.962C182.485 50.929 182.748 50.896 183.028 50.8466L183.061 51.9341H183.012ZM190.423 44.7172C190.127 44.6842 189.83 44.6513 189.534 44.6183C189.27 44.6019 189.007 44.5689 188.71 44.5524C188.414 44.5195 188.15 44.5195 187.903 44.5195C187.442 44.5195 187.063 44.6183 186.767 44.7996C186.487 44.9973 186.339 45.2609 186.339 45.6234C186.339 45.9035 186.454 46.1177 186.668 46.3155C186.882 46.4967 187.146 46.678 187.475 46.8262C187.804 46.9745 188.15 47.1393 188.529 47.2876C188.908 47.4359 189.254 47.6171 189.583 47.8478C189.913 48.062 190.176 48.3256 190.39 48.6387C190.604 48.9518 190.72 49.3307 190.72 49.7921C190.72 50.1052 190.687 50.4182 190.588 50.6983C190.506 50.9949 190.357 51.2585 190.16 51.4892C189.962 51.7199 189.682 51.9011 189.32 52.0494C188.974 52.1812 188.513 52.2472 187.969 52.2472C187.739 52.2472 187.475 52.2472 187.195 52.2142C186.915 52.1977 186.635 52.1648 186.372 52.1318C186.108 52.0989 185.878 52.0659 185.663 52.033C185.466 52 185.318 51.9835 185.252 51.967L185.367 50.8466C185.367 50.8466 185.565 50.8796 185.762 50.896C185.96 50.9125 186.19 50.9455 186.454 50.9784C186.717 50.9949 186.965 51.0279 187.245 51.0443C187.525 51.0608 187.755 51.0773 187.953 51.0773C188.15 51.0773 188.348 51.0608 188.529 51.0114C188.71 50.962 188.875 50.896 189.007 50.7972C189.155 50.6983 189.254 50.5665 189.353 50.4017C189.435 50.237 189.484 50.0392 189.484 49.8086C189.484 49.512 189.369 49.2648 189.155 49.0506C188.941 48.8364 188.677 48.6552 188.348 48.4904C188.019 48.3256 187.673 48.1609 187.294 48.0126C186.915 47.8643 186.569 47.6666 186.24 47.4688C185.91 47.2546 185.647 47.024 185.433 46.7274C185.219 46.4473 185.103 46.0848 185.103 45.6564C185.103 45.3268 185.153 45.0303 185.252 44.7501C185.351 44.47 185.515 44.2394 185.746 44.0252C185.976 43.811 186.273 43.6462 186.635 43.5309C186.997 43.4155 187.459 43.3496 187.986 43.3496C188.216 43.3496 188.447 43.3496 188.71 43.3826C188.974 43.4155 189.221 43.432 189.451 43.4649C189.682 43.4979 189.896 43.5309 190.077 43.5638C190.258 43.5968 190.39 43.6132 190.473 43.6297L190.39 44.7172H190.423Z" fill="#A0722D"/>
<path fill-rule="evenodd" clip-rule="evenodd" d="M25.9558 23.9256C28.1957 22.0638 30.9791 20.8939 34.0096 20.6797C33.6966 20.7785 33.3672 20.8939 33.0543 21.0092L32.7743 21.1081C28.8216 22.6404 25.9064 26.3478 25.5606 30.846C25.1159 36.7612 29.2663 41.9514 34.9978 42.9235C32.132 44.4229 28.8216 45.1809 25.3465 44.9667H25.2641L25.05 44.8184C22.6948 42.4622 21.1796 39.2986 20.9326 35.822C20.8832 35.13 20.8832 34.4379 20.9326 33.7294C21.1631 30.5823 22.4313 27.7483 24.3418 25.5239C24.8524 24.9472 25.3959 24.42 25.9723 23.9256H25.9558Z" fill="#9B6E2B"/>
<path fill-rule="evenodd" clip-rule="evenodd" d="M40.219 14.2041C39.3955 14.1547 38.852 14.1382 38.8849 13.3803C38.8849 13.2979 38.8849 13.199 38.9179 13.1002C40.1531 13.3309 41.4707 13.7098 42.4589 14.6984C42.0142 14.4842 41.6024 14.3689 41.2072 14.303C41.2072 14.3524 41.2072 14.4183 41.2072 14.4842C41.2072 14.5501 41.1577 14.6161 41.1248 14.6655C41.0095 14.8303 40.7954 14.9126 40.5978 14.8632C40.3178 14.7973 40.1531 14.5172 40.219 14.2536V14.2041ZM47.3339 22.0636C47.3998 21.9483 47.4657 21.8165 47.5315 21.7011C47.5645 21.6188 47.6139 21.5364 47.6468 21.454C47.6468 21.454 47.6962 21.3716 47.7127 21.2727C47.8115 20.9926 47.8774 20.7125 47.9104 20.4324C47.9433 20.1358 47.9433 19.8557 47.9104 19.5591C47.7621 17.9279 46.6586 16.4615 45.0446 15.8848C45.0446 13.2155 42.5412 11.5678 40.3507 11.0241C41.0095 11.5513 41.6024 12.2763 41.833 12.8036C38.5061 9.57412 34.0757 7.44859 29.1019 7.06962C26.6149 6.88838 24.2103 7.15201 21.9375 7.79461C24.128 7.86052 26.8126 8.5855 28.1631 9.37639C25.4291 8.55255 22.0363 8.48664 19.0718 8.84913C15.7778 10.3485 12.9285 12.6883 10.8369 15.6376C14.4602 14.5501 19.0388 14.0888 21.7728 14.995C17.573 14.9291 12.8462 16.1649 9.22284 18.3069C8.05349 20.6301 7.29588 23.2335 7.08177 25.9851C6.93355 28.0118 7.08177 29.989 7.47705 31.8839C10.2769 27.5834 15.0037 24.5516 18.9071 23.3159C13.785 25.738 9.66753 30.8458 8.41583 34.998C11.1992 42.1161 17.853 47.3722 25.9726 47.9983C26.055 47.9983 26.1373 47.9983 26.2197 47.9983C13.0274 38.5406 19.6812 21.6682 33.8781 20.35C34.9651 19.8063 36.1015 19.4273 37.2379 19.2131C37.485 19.1637 37.732 19.1307 37.9791 19.0978C40.0543 18.8177 42.1295 18.9824 43.76 19.4438C44.3858 19.625 44.9293 19.8228 45.4069 20.0699C46.0822 20.4159 46.6092 20.8279 46.9057 21.2727C47.0704 21.5693 47.1692 21.8824 47.1692 22.2119H47.1857C47.1857 22.2119 47.2516 22.1295 47.2845 22.0636H47.3339Z" fill="#9B6E2B"/>
<path d="M27.4881 2.55392C34.1418 2.55392 40.4168 5.15728 45.1107 9.86968C49.8211 14.5821 52.4233 20.8433 52.4233 27.5C52.4233 34.1567 49.8211 40.4344 45.1107 45.1468C40.4004 49.8592 34.1418 52.4461 27.4881 52.4461C20.8343 52.4461 14.5593 49.8592 9.8654 45.1468C5.15504 40.4344 2.55282 34.1732 2.55282 27.5165C2.55282 20.8598 5.15504 14.5821 9.8654 9.88616C14.5758 5.17376 20.8343 2.58688 27.4881 2.58688M27.4881 0C19.8955 0 13.0276 3.08119 8.05372 8.05722C3.07985 13.0333 0 19.9041 0 27.5C0 35.0959 3.07985 41.9667 8.05372 46.9428C13.0276 51.9188 19.8955 55 27.4881 55C35.0806 55 41.9485 51.9188 46.9224 46.9428C51.8963 41.9667 54.9761 35.0959 54.9761 27.5C54.9761 19.9041 51.8963 13.0333 46.9224 8.05722C41.9485 3.08119 35.0806 0 27.4881 0Z" fill="#9B6E2B"/>
</svg>
